<?xml version="1.0" encoding="UTF-8" standalone="no"?>
<svg
   xmlns:dc="http://purl.org/dc/elements/1.1/"
   xmlns:cc="http://creativecommons.org/ns#"
   xmlns:rdf="http://www.w3.org/1999/02/22-rdf-syntax-ns#"
   xmlns:svg="http://www.w3.org/2000/svg"
   xmlns="http://www.w3.org/2000/svg"
   xmlns:xlink="http://www.w3.org/1999/xlink"
   xmlns:sodipodi="http://sodipodi.sourceforge.net/DTD/sodipodi-0.dtd"
   xmlns:inkscape="http://www.inkscape.org/namespaces/inkscape"
   width="149.33578mm"
   height="77.4991mm"
   viewBox="0 0 149.33578 77.4991"
   version="1.1"
   id="svg8"
   inkscape:version="1.0.1 (3bc2e813f5, 2020-09-07)"
   sodipodi:docname="gears.svg">
  <defs
     id="defs2">
    <linearGradient
       inkscape:collect="always"
       id="linearGradient982">
      <stop
         style="stop-color:#999999;stop-opacity:1;"
         offset="0"
         id="stop978" />
      <stop
         style="stop-color:#999999;stop-opacity:0;"
         offset="1"
         id="stop980" />
    </linearGradient>
    <radialGradient
       inkscape:collect="always"
       xlink:href="#linearGradient982"
       id="radialGradient984"
       cx="91.600014"
       cy="156.90723"
       fx="91.600006"
       fy="156.90726"
       r="50.158577"
       gradientTransform="matrix(1.4735801,0,0,0.19698297,-35.516706,119.03983)"
       gradientUnits="userSpaceOnUse" />
  </defs>
  <sodipodi:namedview
     id="base"
     pagecolor="#ffffff"
     bordercolor="#666666"
     borderopacity="1.0"
     inkscape:pageopacity="0.0"
     inkscape:pageshadow="2"
     inkscape:zoom="0.49481547"
     inkscape:cx="307.77693"
     inkscape:cy="318.23522"
     inkscape:document-units="mm"
     inkscape:current-layer="layer1"
     inkscape:document-rotation="0"
     showgrid="false"
     fit-margin-top="0"
     fit-margin-left="0"
     fit-margin-right="0"
     fit-margin-bottom="0"
     inkscape:window-width="1366"
     inkscape:window-height="697"
     inkscape:window-x="-8"
     inkscape:window-y="-8"
     inkscape:window-maximized="1" />
  <metadata
     id="metadata5">
    <rdf:RDF>
      <cc:Work
         rdf:about="">
        <dc:format>image/svg+xml</dc:format>
        <dc:type
           rdf:resource="http://purl.org/dc/dcmitype/StillImage" />
        <dc:title></dc:title>
      </cc:Work>
    </rdf:RDF>
  </metadata>
  <g
     inkscape:label="Layer 1"
     inkscape:groupmode="layer"
     id="layer1"
     transform="translate(-26.066338,-81.910587)">
    <g
       id="g1009">
      <ellipse
         style="fill:url(#radialGradient984);fill-opacity:1;fill-rule:evenodd;stroke:none;stroke-width:1.16364"
         id="path968"
         cx="99.463264"
         cy="149.94771"
         rx="73.396927"
         ry="9.2240286" />
      <path
         style="fill:#333333;fill-opacity:1;stroke-width:0.124287"
         d="m 156.40108,113.40447 c 0,-0.0258 0.0979,-0.12369 0.2175,-0.2175 0.19713,-0.1546 0.20152,-0.1502 0.0469,0.0469 -0.16237,0.20703 -0.26443,0.27287 -0.26443,0.17058 z m -42.65368,-0.16226 c 0.0897,-0.0359 0.19691,-0.0315 0.23821,0.01 0.0413,0.0413 -0.0321,0.0707 -0.16312,0.0653 -0.14479,-0.006 -0.17424,-0.0354 -0.0751,-0.0751 z m 30.96131,-0.50547 -0.30131,-0.34178 0.34179,0.30131 c 0.31945,0.28162 0.39878,0.38226 0.30131,0.38226 -0.0223,0 -0.17607,-0.1538 -0.34179,-0.34179 z m -36.17391,-1.24286 c -0.1546,-0.19713 -0.1502,-0.20153 0.0469,-0.0469 0.11963,0.0938 0.2175,0.19169 0.2175,0.2175 0,0.1023 -0.10206,0.0365 -0.26442,-0.17057 z m -0.62143,-0.62144 c -0.1546,-0.19712 -0.1502,-0.20152 0.0469,-0.0469 0.11962,0.0938 0.2175,0.19169 0.2175,0.2175 0,0.10229 -0.10206,0.0365 -0.26443,-0.17058 z m 8.84021,-1.08751 c 0.16055,-0.17089 0.31987,-0.31071 0.35405,-0.31071 0.0342,0 -0.0692,0.13982 -0.22976,0.31071 -0.16055,0.1709 -0.31987,0.31072 -0.35405,0.31072 -0.0342,0 0.0692,-0.13982 0.22976,-0.31072 z m 40.32326,-9.53901 -0.36504,-0.403928 0.40393,0.365038 c 0.37652,0.34027 0.46106,0.44282 0.36504,0.44282 -0.0214,0 -0.20316,-0.18177 -0.40393,-0.40393 z m -6.16769,-2.539568 c 0.0897,-0.0359 0.19692,-0.0315 0.23822,0.01 0.0413,0.0413 -0.0321,0.0707 -0.16312,0.0653 -0.14479,-0.006 -0.17424,-0.0354 -0.0751,-0.0751 z"
         id="path863"
         sodipodi:nodetypes="csscccccccscsssccscccssccsssssscsssccscc" />
      <path
         style="fill:#d0d0d0;fill-opacity:1;stroke-width:0.124287"
         d="m 151.53059,131.13951 c 0.0897,-0.0359 0.19692,-0.0315 0.23822,0.01 0.0413,0.0413 -0.0321,0.0707 -0.16313,0.0653 -0.14479,-0.006 -0.17424,-0.0354 -0.0751,-0.0751 z m -9.04964,-2.57205 c 0,-0.0258 0.0979,-0.12368 0.2175,-0.2175 0.19713,-0.1546 0.20153,-0.1502 0.0469,0.0469 -0.16236,0.20704 -0.26442,0.27287 -0.26442,0.17058 z m -6.57738,-5.36991 c 0.006,-0.14479 0.0354,-0.17423 0.0751,-0.0751 0.0359,0.0897 0.0315,0.19692 -0.01,0.23822 -0.0413,0.0413 -0.0707,-0.0321 -0.0653,-0.16313 z m -0.51366,-1.26358 -0.42831,-0.46608 0.46608,0.42832 c 0.25634,0.23557 0.46607,0.4453 0.46607,0.46607 0,0.0949 -0.10517,0.006 -0.50384,-0.42831 z m 4.28278,-3.66646 -0.23676,-0.27965 0.27964,0.23677 c 0.2628,0.2225 0.33623,0.32252 0.23677,0.32252 -0.0236,0 -0.14943,-0.12584 -0.27965,-0.27964 z m -0.56334,-0.55929 c -0.15459,-0.19713 -0.1502,-0.20152 0.0469,-0.0469 0.20704,0.16237 0.27287,0.26443 0.17058,0.26443 -0.0258,0 -0.12368,-0.0979 -0.2175,-0.2175 z m -19.18645,-4.87826 c 0.12372,-0.13672 0.25292,-0.24857 0.2871,-0.24857 0.0342,0 -0.0391,0.11185 -0.16282,0.24857 -0.12372,0.13672 -0.25292,0.24857 -0.28709,0.24857 -0.0342,0 0.0391,-0.11185 0.16281,-0.24857 z m -4.78504,-4.52125 c 0,-0.0258 0.0979,-0.12369 0.2175,-0.2175 0.19712,-0.1546 0.20152,-0.1502 0.0469,0.0469 -0.16237,0.20703 -0.26443,0.27287 -0.26443,0.17058 z m 19.52284,-1.01987 c 0.006,-0.14479 0.0354,-0.17424 0.0751,-0.0751 0.0359,0.0897 0.0315,0.19692 -0.01,0.23822 -0.0413,0.0413 -0.0707,-0.0321 -0.0653,-0.16313 z m 7.35696,-0.79751 c 0,-0.30761 0.0242,-0.43345 0.0539,-0.27964 0.0296,0.1538 0.0296,0.40548 0,0.55929 -0.0296,0.1538 -0.0539,0.028 -0.0539,-0.27965 z m -38.16567,-0.31071 c 0.002,-0.20508 0.0304,-0.27393 0.0619,-0.153 0.0315,0.12093 0.0294,0.28872 -0.005,0.37286 -0.034,0.0841 -0.0598,-0.0148 -0.0573,-0.21986 z m 6.58259,0.0621 c 0,-0.1709 0.0282,-0.24081 0.0627,-0.15536 0.0345,0.0854 0.0345,0.22527 0,0.31072 -0.0345,0.0854 -0.0627,0.0155 -0.0627,-0.15536 z m 10.07184,-0.0621 c 0.002,-0.20508 0.0304,-0.27393 0.0619,-0.153 0.0315,0.12093 0.0294,0.28872 -0.005,0.37286 -0.0341,0.0841 -0.0598,-0.0148 -0.0573,-0.21986 z m 14.15428,-0.38322 c 0.006,-0.14479 0.0354,-0.17424 0.0751,-0.0751 0.0359,0.0897 0.0315,0.19691 -0.01,0.23821 -0.0413,0.0413 -0.0707,-0.0321 -0.0653,-0.16312 z m 9.93313,-5.58255 c 0.16055,-0.1709 0.31987,-0.310718 0.35405,-0.310718 0.0342,0 -0.0692,0.139818 -0.22976,0.310718 -0.16055,0.17089 -0.31987,0.31071 -0.35405,0.31071 -0.0342,0 0.0692,-0.13982 0.22976,-0.31071 z m -31.47419,-1.268628 c 0.15461,-0.0297 0.37832,-0.0286 0.49715,0.003 0.11883,0.0311 -0.008,0.0554 -0.28109,0.0541 -0.27343,-10e-4 -0.37066,-0.0268 -0.21606,-0.0566 z m 37.2846,-1.36156 c 0.0854,-0.0345 0.22527,-0.0345 0.31072,0 0.0854,0.0345 0.0155,0.0627 -0.15536,0.0627 -0.1709,0 -0.24081,-0.0282 -0.15536,-0.0627 z m 0.87778,-0.003 c 0.0897,-0.0359 0.19691,-0.0315 0.23821,0.01 0.0413,0.0413 -0.0321,0.0707 -0.16312,0.0653 -0.14479,-0.006 -0.17424,-0.0354 -0.0751,-0.0751 z m -1.24287,-7.33293 c 0.0897,-0.0359 0.19691,-0.0315 0.23821,0.01 0.0413,0.0413 -0.0321,0.0707 -0.16312,0.0653 -0.14479,-0.006 -0.17424,-0.0354 -0.0751,-0.0751 z m -14.12577,-0.41224 c 0,-0.1709 0.0282,-0.24081 0.0627,-0.15536 0.0345,0.0854 0.0345,0.22527 0,0.31072 -0.0345,0.0854 -0.0627,0.0155 -0.0627,-0.15536 z"
         id="path877"
         sodipodi:nodetypes="ccscccsccccscccccsscscsssscsssssssscsscccscccscsscscccsssscsccccscccssssscccccssssccsccccsccssss" />
      <path
         style="fill:#b9b9b9;fill-opacity:1;stroke-width:0.124287"
         d="m 171.36583,118.88894 -0.23677,-0.27964 0.27965,0.23676 c 0.1538,0.13022 0.27964,0.25606 0.27964,0.27965 0,0.0995 -0.10002,0.026 -0.32252,-0.23677 z m -58.37192,-3.2881 c 0.1538,-0.0296 0.40548,-0.0296 0.55929,0 0.1538,0.0296 0.028,0.0539 -0.27965,0.0539 -0.30761,0 -0.43345,-0.0242 -0.27964,-0.0539 z m -11.42662,-2.73149 c 0.0897,-0.0359 0.19692,-0.0315 0.23822,0.01 0.0413,0.0413 -0.0321,0.0707 -0.16313,0.0653 -0.14479,-0.006 -0.17424,-0.0354 -0.0751,-0.0751 z m 2.27028,-6.20194 c 0.006,-0.14479 0.0354,-0.17424 0.0751,-0.0751 0.0359,0.0897 0.0315,0.19691 -0.01,0.23821 -0.0413,0.0413 -0.0707,-0.0321 -0.0653,-0.16312 z m 0,-0.9943 c 0.006,-0.14479 0.0354,-0.17424 0.0751,-0.0751 0.0359,0.0897 0.0315,0.19692 -0.01,0.23822 -0.0413,0.0413 -0.0707,-0.0321 -0.0653,-0.16313 z m 71.46491,-0.12429 c 0.006,-0.14478 0.0354,-0.17423 0.0751,-0.0751 0.0359,0.0897 0.0315,0.19692 -0.01,0.23822 -0.0413,0.0413 -0.0707,-0.0321 -0.0653,-0.16313 z m -24.39333,-7.966748 c 0.0897,-0.0359 0.19692,-0.0315 0.23822,0.01 0.0413,0.0413 -0.0321,0.0707 -0.16312,0.0653 -0.14479,-0.006 -0.17424,-0.0354 -0.0751,-0.0751 z m 1.11859,-7.33293 c 0.0897,-0.0359 0.19691,-0.0315 0.23821,0.01 0.0413,0.0413 -0.0321,0.0707 -0.16312,0.0653 -0.14479,-0.006 -0.17424,-0.0354 -0.0751,-0.0751 z"
         id="path875"
         sodipodi:nodetypes="scssscsscccccccsccccsccccscccccsccccscc" />
      <path
         style="fill:#a3a3a3;fill-opacity:1;stroke-width:0.124287"
         d="m 167.71118,124.34974 c 0,-0.0214 0.18177,-0.20316 0.40393,-0.40393 l 0.40393,-0.36504 -0.36504,0.40393 c -0.34027,0.37652 -0.44282,0.46106 -0.44282,0.36504 z m -5.46862,-6.09809 c 0,-0.0258 0.0979,-0.12368 0.2175,-0.2175 0.19713,-0.15459 0.20152,-0.1502 0.0469,0.0469 -0.16237,0.20703 -0.26443,0.27287 -0.26443,0.17057 z m -39.39892,-1.60769 c 0,-0.0214 0.18177,-0.20316 0.40393,-0.40393 l 0.40393,-0.36504 -0.36504,0.40393 c -0.34027,0.37652 -0.44282,0.46106 -0.44282,0.36504 z m 52.45884,-9.47941 c 0.006,-0.14478 0.0354,-0.17423 0.0751,-0.0751 0.0359,0.0897 0.0315,0.19692 -0.01,0.23822 -0.0413,0.0413 -0.0707,-0.0321 -0.0653,-0.16313 z m 0,-1.24287 c 0.006,-0.14478 0.0354,-0.17423 0.0751,-0.0751 0.0359,0.0897 0.0315,0.19692 -0.01,0.23822 -0.0413,0.0413 -0.0707,-0.0321 -0.0653,-0.16313 z m -65.5711,-3.15895 c 0.12373,-0.13672 0.25292,-0.24858 0.2871,-0.24858 0.0342,0 -0.0391,0.11186 -0.16281,0.24858 -0.12373,0.13671 -0.25292,0.24857 -0.2871,0.24857 -0.0342,0 0.0391,-0.11186 0.16281,-0.24857 z m -1.55358,-1.67787 c 0.16054,-0.1709 0.31986,-0.31072 0.35404,-0.31072 0.0342,0 -0.0692,0.13982 -0.22976,0.31072 -0.16054,0.17089 -0.31987,0.31071 -0.35404,0.31071 -0.0342,0 0.0692,-0.13982 0.22976,-0.31071 z m 31.19598,-6.090058 c 0.23189,-0.23925 0.44959,-0.435 0.48377,-0.435 0.0342,0 -0.12759,0.19575 -0.35948,0.435 -0.23189,0.23925 -0.44959,0.43501 -0.48377,0.43501 -0.0342,0 0.12759,-0.19576 0.35948,-0.43501 z"
         id="path873"
         sodipodi:nodetypes="sscsscssccsscsscsccccscccsssssssssssssss" />
      <path
         style="fill:#8c8c8c;fill-opacity:1;stroke-width:0.124287"
         d="m 150.59067,122.80817 c 0.18798,-0.0285 0.49559,-0.0285 0.68358,0 0.18798,0.0285 0.0342,0.0518 -0.34179,0.0518 -0.37597,0 -0.52977,-0.0233 -0.34179,-0.0518 z m 12.02475,-4.92938 c 0,-0.0258 0.0979,-0.12368 0.2175,-0.2175 0.19713,-0.15459 0.20152,-0.1502 0.0469,0.0469 -0.16237,0.20703 -0.26443,0.27287 -0.26443,0.17057 z m -11.20912,-2.52371 c 0.0897,-0.0359 0.19692,-0.0315 0.23822,0.01 0.0413,0.0413 -0.0321,0.0707 -0.16313,0.0653 -0.14479,-0.006 -0.17424,-0.0354 -0.0751,-0.0751 z m -38.52891,-1.98859 c 0.0897,-0.0359 0.19692,-0.0315 0.23822,0.01 0.0413,0.0413 -0.0321,0.0707 -0.16313,0.0653 -0.14479,-0.006 -0.17424,-0.0354 -0.0751,-0.0751 z m 0.62143,0 c 0.0897,-0.0359 0.19692,-0.0315 0.23822,0.01 0.0413,0.0413 -0.0321,0.0707 -0.16313,0.0653 -0.14478,-0.006 -0.17423,-0.0354 -0.0751,-0.0751 z m -6.94616,-0.50546 -0.30131,-0.34179 0.34179,0.30131 c 0.31945,0.28162 0.39878,0.38227 0.30131,0.38227 -0.0223,0 -0.17607,-0.1538 -0.34179,-0.34179 z m 38.0915,-0.0621 -0.23676,-0.27965 0.27964,0.23677 c 0.2628,0.2225 0.33623,0.32252 0.23677,0.32252 -0.0236,0 -0.14943,-0.12584 -0.27965,-0.27964 z m -27.95272,-3.0761 c 0.12373,-0.13672 0.25292,-0.24857 0.2871,-0.24857 0.0342,0 -0.0391,0.11185 -0.16281,0.24857 -0.12373,0.13672 -0.25292,0.24857 -0.2871,0.24857 -0.0342,0 0.0391,-0.11185 0.16281,-0.24857 z m -5.42233,-1.58466 c -0.15459,-0.19712 -0.1502,-0.20152 0.0469,-0.0469 0.11963,0.0938 0.2175,0.19169 0.2175,0.2175 0,0.10229 -0.10206,0.0365 -0.26442,-0.17058 z m 55.9857,-1.58465 c 5e-4,-0.47851 0.023,-0.65903 0.0499,-0.40116 0.0269,0.25786 0.0265,0.64937 -9.9e-4,0.87 -0.0275,0.22064 -0.0495,0.01 -0.0489,-0.46884 z m -58.9331,-0.31072 c 0,-0.1709 0.0282,-0.24081 0.0627,-0.15536 0.0345,0.0854 0.0345,0.22527 0,0.31072 -0.0345,0.0854 -0.0627,0.0155 -0.0627,-0.15536 z m 7.71038,-0.0621 c 0.002,-0.20508 0.0304,-0.27393 0.0619,-0.153 0.0315,0.12093 0.0294,0.28872 -0.005,0.37286 -0.034,0.0841 -0.0598,-0.0148 -0.0573,-0.21986 z m 33.71964,-21.563848 c 0.12373,-0.13671 0.25293,-0.24857 0.2871,-0.24857 0.0342,0 -0.0391,0.11186 -0.16281,0.24857 -0.12373,0.13672 -0.25292,0.24858 -0.2871,0.24858 -0.0342,0 0.0391,-0.11186 0.16281,-0.24858 z"
         id="path871"
         sodipodi:nodetypes="sssscssccccsccccccccccccscsssscssssssssscsssssssssssscscccsssss" />
      <path
         style="fill:#767676;fill-opacity:1;stroke-width:0.124287"
         d="m 158.5453,128.9251 c 0.001,-0.27343 0.0268,-0.37065 0.0566,-0.21605 0.0297,0.1546 0.0286,0.37832 -0.003,0.49715 -0.0311,0.11883 -0.0554,-0.008 -0.0541,-0.2811 z m -8.63821,-6.11022 c 0.0855,-0.0345 0.22527,-0.0345 0.31072,0 0.0854,0.0345 0.0155,0.0627 -0.15536,0.0627 -0.17089,0 -0.2408,-0.0282 -0.15536,-0.0627 z m 1.74002,0 c 0.0855,-0.0345 0.22527,-0.0345 0.31071,0 0.0855,0.0345 0.0155,0.0627 -0.15535,0.0627 -0.1709,0 -0.24081,-0.0282 -0.15536,-0.0627 z m -34.00389,-3.64629 c 0,-0.1709 0.0282,-0.24081 0.0627,-0.15536 0.0345,0.0854 0.0345,0.22527 0,0.31072 -0.0345,0.0854 -0.0627,0.0155 -0.0627,-0.15536 z m 33.07174,-3.81428 c 0.11962,-0.0313 0.31537,-0.0313 0.435,0 0.11963,0.0313 0.0217,0.0568 -0.2175,0.0568 -0.23925,0 -0.33713,-0.0256 -0.2175,-0.0568 z m -46.52375,-0.3804 -0.30131,-0.34179 0.34179,0.30131 c 0.31945,0.28162 0.39878,0.38227 0.30131,0.38227 -0.0223,0 -0.17607,-0.15381 -0.34179,-0.34179 z m 8.81047,-3.84458 c 0.0897,-0.0359 0.19691,-0.0315 0.23821,0.01 0.0413,0.0413 -0.0321,0.0707 -0.16312,0.0653 -0.14479,-0.006 -0.17424,-0.0354 -0.0751,-0.0751 z m 54.22216,-3.59192 c 0.006,-0.14478 0.0354,-0.17423 0.0751,-0.0751 0.0359,0.0897 0.0315,0.19692 -0.01,0.23822 -0.0413,0.0413 -0.0707,-0.0321 -0.0653,-0.16313 z m -66.61773,-0.74572 c 0.006,-0.14479 0.0354,-0.17424 0.0751,-0.0751 0.0359,0.0897 0.0315,0.19692 -0.01,0.23822 -0.0413,0.0413 -0.0707,-0.0321 -0.0653,-0.16313 z m 26.73148,-0.0518 c 0,-0.1709 0.0282,-0.24081 0.0627,-0.15536 0.0345,0.0854 0.0345,0.22527 0,0.31071 -0.0345,0.0855 -0.0627,0.0155 -0.0627,-0.15535 z m 32.45308,-0.24858 c 0,-0.30761 0.0242,-0.43345 0.0539,-0.27964 0.0296,0.1538 0.0296,0.40548 0,0.55929 -0.0296,0.1538 -0.0539,0.028 -0.0539,-0.27965 z m 15.53334,0.0622 c 0.001,-0.27344 0.0268,-0.37066 0.0566,-0.21606 0.0297,0.1546 0.0286,0.37832 -0.003,0.49715 -0.0311,0.11883 -0.0554,-0.008 -0.054,-0.28109 z m -52.56911,-0.37286 c 9.9e-4,-0.34179 0.0251,-0.46686 0.0536,-0.27794 0.0286,0.18892 0.0278,0.46857 -0.002,0.62143 -0.0295,0.15287 -0.0529,-0.002 -0.0519,-0.34349 z m -16.66115,0.0621 c 0,-0.23925 0.0256,-0.33713 0.0568,-0.2175 0.0313,0.11962 0.0313,0.31537 0,0.435 -0.0313,0.11963 -0.0568,0.0218 -0.0568,-0.2175 z m 21.23403,-0.56965 c 0.006,-0.14479 0.0354,-0.17424 0.0751,-0.0751 0.0359,0.0897 0.0315,0.19692 -0.01,0.23822 -0.0413,0.0413 -0.0707,-0.0321 -0.0653,-0.16313 z m -26.72167,-0.12429 c 0.006,-0.14478 0.0354,-0.17423 0.0751,-0.0751 0.0359,0.0897 0.0315,0.19692 -0.01,0.23822 -0.0413,0.0413 -0.0707,-0.0321 -0.0653,-0.16313 z m 66.61773,0 c 0.006,-0.14478 0.0354,-0.17423 0.0751,-0.0751 0.0359,0.0897 0.0315,0.19692 -0.01,0.23822 -0.0413,0.0413 -0.0707,-0.0321 -0.0653,-0.16313 z m -54.414,-8.837988 c 0.12093,-0.0315 0.28872,-0.0294 0.37286,0.005 0.0842,0.034 -0.0148,0.0598 -0.21986,0.0573 -0.20508,-0.003 -0.27392,-0.0304 -0.153,-0.0619 z m 0.74573,0 c 0.12092,-0.0315 0.28871,-0.0294 0.37286,0.005 0.0841,0.034 -0.0148,0.0598 -0.21987,0.0573 -0.20507,-0.003 -0.27392,-0.0304 -0.15299,-0.0619 z m 48.91971,-1.7471 c -0.1546,-0.19713 -0.1502,-0.20152 0.0469,-0.0469 0.20703,0.16237 0.27287,0.26443 0.17058,0.26443 -0.0258,0 -0.12368,-0.0979 -0.2175,-0.2175 z m 8.90236,-0.90108 c 0.12372,-0.13672 0.25292,-0.24857 0.2871,-0.24857 0.0342,0 -0.0391,0.11185 -0.16282,0.24857 -0.12372,0.13672 -0.25292,0.24857 -0.2871,0.24857 -0.0342,0 0.0391,-0.11185 0.16282,-0.24857 z m -53.72982,-0.80786 c 0.002,-0.20508 0.0304,-0.27392 0.0619,-0.153 0.0315,0.12093 0.0294,0.28872 -0.005,0.37286 -0.034,0.0841 -0.0598,-0.0148 -0.0573,-0.21986 z m 17.68664,-2.05074 c 0.267,-0.27343 0.51342,-0.49714 0.5476,-0.49714 0.0342,0 -0.15631,0.22371 -0.42331,0.49714 -0.267,0.27343 -0.51342,0.49715 -0.5476,0.49715 -0.0342,0 0.15631,-0.22372 0.42331,-0.49715 z m 23.21084,-7.14649 c 0.001,-0.27343 0.0268,-0.370653 0.0566,-0.216052 0.0297,0.154602 0.0286,0.378322 -0.003,0.497152 -0.0311,0.11882 -0.0554,-0.008 -0.0541,-0.2811 z"
         id="path869"
         sodipodi:nodetypes="cccccsssssssssssscsscscsssccccccsccccscccssssscssccccccccccscsscsccccsccccscccccccccccccsssssssssscscccsssssccccc" />
      <path
         style="fill:#999999;fill-opacity:1;stroke-width:0.124287"
         d="m 151.33639,131.01781 c -0.0854,-0.0345 -0.15536,-0.16095 -0.15536,-0.28105 0,-0.39616 -0.72591,-1.68 -1.20612,-2.13315 -0.44935,-0.42402 -0.53372,-0.45187 -1.77676,-0.58659 -0.71776,-0.0778 -1.88095,-0.28259 -2.58486,-0.45512 l -1.27985,-0.31369 -0.48778,0.24885 c -0.61151,0.31196 -1.30763,0.91766 -1.74034,1.51429 l -0.33298,0.45912 -1.16821,-0.52645 c -1.40052,-0.63114 -3.05772,-1.59256 -4.36164,-2.53039 -0.90556,-0.65131 -0.94709,-0.70183 -0.78312,-0.95246 0.25569,-0.3908 0.55867,-1.66019 0.55867,-2.34061 0,-0.56788 -0.0423,-0.64025 -0.94686,-1.62069 -0.52077,-0.56445 -1.31416,-1.51719 -1.76308,-2.1172 -0.5181,-0.69248 -0.93262,-1.12363 -1.13494,-1.18046 -0.43236,-0.12145 -2.08068,-0.11382 -2.62332,0.0121 l -0.4403,0.10221 -0.58095,-1.22079 c -0.71191,-1.49598 -1.24945,-2.95189 -1.58803,-4.30112 -0.14093,-0.56162 -0.28466,-1.11722 -0.31939,-1.23466 -0.0472,-0.15969 0.0875,-0.2834 0.53432,-0.49072 0.32861,-0.15246 0.90509,-0.58881 1.28105,-0.96968 l 0.68358,-0.69249 -0.007,-2.87136 -0.007,-2.87136 -0.34535,-0.41043 c -0.43632,-0.51854 -1.12507,-1.06982 -1.71266,-1.37083 l -0.4557,-0.23344 0.18127,-0.77956 c 0.37773,-1.624438 0.95271,-3.243728 1.79716,-5.061218 0.41436,-0.89185 0.56992,-1.11744 0.7246,-1.05082 0.37084,0.15972 2.3057,0.20262 2.80698,0.0623 0.41364,-0.11584 0.59057,-0.27818 1.05331,-0.96646 0.30589,-0.45498 1.08248,-1.38329 1.72577,-2.0629 l 1.1696,-1.23566 -0.0656,-0.9577 c -0.0408,-0.59536 -0.17347,-1.20835 -0.35064,-1.62021 l -0.28501,-0.66251 0.3649,-0.29976 c 1.44956,-1.19083 5.63635,-3.484281 6.0623,-3.320829 0.11342,0.04352 0.20622,0.119862 0.20622,0.169644 0,0.182315 1.16785,1.268445 1.69787,1.579055 0.36959,0.2166 0.65479,0.29868 0.88421,0.2545 0.18626,-0.0359 0.98184,-0.20241 1.76795,-0.37009 0.78612,-0.16768 1.86592,-0.34529 2.39955,-0.39469 l 0.97025,-0.0898 0.55423,-0.70339 c 0.31513,-0.399928 0.64382,-0.998303 0.76187,-1.386967 0.1142,-0.375967 0.24387,-0.727442 0.28816,-0.781054 0.21452,-0.259699 4.42761,0.359671 6.35032,0.933567 l 0.94644,0.282488 -0.0495,0.435003 c -0.0658,0.577973 0.17444,1.946113 0.4342,2.473023 0.16766,0.34008 0.45255,0.54714 1.46348,1.06364 0.69041,0.35274 1.7434,0.96612 2.33998,1.36308 l 1.08469,0.72173 0.76305,-0.15012 c 0.68681,-0.13513 1.53364,-0.49758 2.09616,-0.89718 0.27734,-0.19702 0.77839,0.1908 1.98779,1.53855 1.20945,1.3478 1.70565,1.97189 2.43772,3.06596 l 0.60198,0.89967 -0.475,0.51452 c -0.60645,0.65691 -1.14498,1.75495 -1.14019,2.32484 0.002,0.24587 0.23267,0.9507 0.51805,1.58337 0.28288,0.62714 0.66311,1.66183 0.84495,2.299308 0.18184,0.63748 0.38721,1.22965 0.45639,1.31593 0.23171,0.289 1.63984,0.88188 2.30366,0.96994 0.48098,0.0638 0.69717,0.15754 0.80764,0.35016 0.10774,0.18788 0.15084,1.19404 0.15084,3.52116 0,2.73652 -0.0299,3.28575 -0.18643,3.43074 -0.10254,0.0949 -0.57678,0.26566 -1.05387,0.37937 -0.4771,0.11372 -1.14838,0.37702 -1.49174,0.58512 -0.61959,0.37551 -0.62692,0.38746 -0.97178,1.58413 -0.19112,0.66318 -0.59732,1.79231 -0.90268,2.5092 -0.42132,0.98917 -0.53605,1.39333 -0.47583,1.67629 0.12353,0.58054 0.63438,1.51328 1.12808,2.05975 0.42476,0.47016 0.43974,0.51539 0.27529,0.83087 -0.40679,0.78033 -2.11174,2.92079 -3.27687,4.1139 l -1.25714,1.28731 -0.55428,-0.37219 c -0.68502,-0.46001 -1.58799,-0.77314 -2.22942,-0.77314 -0.38304,0 -0.7303,0.15831 -1.64246,0.74876 -0.63619,0.41182 -1.67222,1.00489 -2.30227,1.31793 -1.13701,0.56491 -1.14754,0.57439 -1.41192,1.27089 -0.16605,0.43745 -0.27669,1.04254 -0.29378,1.60664 -0.0151,0.4977 -0.0788,0.9499 -0.14167,1.00491 -0.14881,0.13025 -1.72563,0.56909 -2.91574,0.81147 -1.69997,0.34622 -3.78657,0.52836 -4.18964,0.36572 z m 2.67244,-8.43174 c 5.78474,-1.10381 10.67778,-5.42468 12.5144,-11.05103 0.55952,-1.71404 0.74302,-2.96115 0.74212,-5.04371 -6.2e-4,-1.35821 -0.0653,-2.23346 -0.21943,-2.96731 -0.63167,-3.00772 -1.91713,-5.646208 -3.76701,-7.732068 -2.54829,-2.87335 -5.87943,-4.75268 -9.55,-5.38784 -1.46039,-0.2527 -4.04531,-0.24971 -5.53993,0.006 -2.27206,0.38935 -4.57141,1.33169 -6.56399,2.69012 -1.21037,0.82516 -3.24263,2.86173 -4.09158,4.10026 -1.00085,1.46013 -1.96616,3.576098 -2.40471,5.271138 -0.50413,1.94855 -0.62489,4.66936 -0.29501,6.64676 0.5938,3.55936 2.17321,6.56821 4.76953,9.08617 2.73553,2.65297 5.82841,4.10377 9.8378,4.6147 0.80774,0.10293 3.53509,-0.0366 4.56781,-0.23361 z m -40.41481,-2.26783 c -0.0516,-0.0513 -0.1643,-0.261 -0.25045,-0.46607 -0.0862,-0.20508 -0.30326,-0.54674 -0.48247,-0.75925 -0.28574,-0.33884 -0.42954,-0.3969 -1.16849,-0.47175 -0.46346,-0.047 -1.16331,-0.16799 -1.55523,-0.26899 -0.69401,-0.17883 -0.72478,-0.17584 -1.18072,0.11495 -0.25748,0.16422 -0.59281,0.44422 -0.74517,0.62223 -0.31028,0.36252 -0.37162,0.35304 -1.53687,-0.23743 -0.51124,-0.25907 -2.35442,-1.41492 -2.34837,-1.47266 7.4e-4,-0.007 0.0846,-0.28739 0.18643,-0.62296 0.31343,-1.03318 0.26154,-1.23919 -0.52956,-2.1023 -0.39306,-0.42884 -0.88897,-1.0007 -1.10203,-1.2708 l -0.38738,-0.49111 -0.9377,0.015 -0.93771,0.015 -0.37557,-0.82288 c -0.321543,-0.70451 -0.635308,-1.601 -0.947996,-2.70863 -0.06162,-0.21826 0.02836,-0.34197 0.469479,-0.64547 0.873147,-0.60074 0.919177,-0.73015 0.922657,-2.59391 l 0.003,-1.6451 -0.54119,-0.49885 c -0.297653,-0.27437 -0.592382,-0.49885 -0.654954,-0.49885 -0.06257,0 -0.141118,-0.0713 -0.174549,-0.1584 -0.08583,-0.22366 0.451633,-2.02261 0.911663,-3.05145 l 0.38725,-0.866058 0.7237,0.0656 c 0.99264,0.09 1.27982,-0.009 1.64986,-0.56803 0.17511,-0.26462 0.63061,-0.81836 1.01222,-1.23054 0.76441,-0.82567 0.84164,-1.14068 0.50873,-2.07514 -0.0958,-0.26891 -0.14581,-0.53484 -0.11112,-0.59096 0.13582,-0.21976 1.58818,-1.12781 2.54023,-1.58821 l 1.00279,-0.48494 0.42867,0.47449 c 0.64516,0.71411 0.98516,0.81372 2.00268,0.58672 0.4658,-0.10392 1.16506,-0.22709 1.55391,-0.27372 0.63191,-0.0758 0.7404,-0.13295 1.02127,-0.53825 0.17284,-0.24941 0.37745,-0.63475 0.45469,-0.85631 l 0.14043,-0.40284 0.7026,0.0712 c 0.92533,0.0937 1.90499,0.27408 2.78278,0.51226 0.64689,0.17552 0.70636,0.22001 0.64119,0.47967 -0.0395,0.15741 0.0152,0.58559 0.12158,0.9515 0.17604,0.60556 0.2468,0.69091 0.78811,0.95058 0.32708,0.15691 0.93417,0.50458 1.34909,0.7726 0.88273,0.57021 1.24306,0.60155 2.10421,0.18299 l 0.62143,-0.30205 0.4168,0.3964 c 0.46477,0.44202 1.89392,2.23763 2.11094,2.65221 0.10823,0.20676 0.1031,0.28133 -0.0226,0.32959 -0.0894,0.0343 -0.32189,0.36674 -0.51666,0.73874 l -0.35413,0.676378 0.38476,0.98262 c 0.21162,0.54044 0.46347,1.2343 0.55967,1.54191 0.13625,0.43568 0.28265,0.62065 0.66239,0.8369 0.26812,0.15268 0.66549,0.27852 0.88304,0.27964 0.52604,0.003 0.56352,0.1538 0.56062,2.25972 -0.002,1.77086 -0.0797,2.09102 -0.50532,2.09358 -0.11125,6.2e-4 -0.49033,0.13533 -0.84239,0.29926 -0.53556,0.24936 -0.6542,0.36589 -0.72635,0.71343 -0.0474,0.22847 -0.28037,0.90685 -0.51766,1.50752 -0.48878,1.23735 -0.46338,1.54466 0.1926,2.33042 l 0.35612,0.42658 -0.49988,0.73611 c -0.27493,0.40486 -0.87766,1.13228 -1.3394,1.61649 l -0.83952,0.88037 -0.47863,-0.26792 c -0.88469,-0.4952 -1.27171,-0.49029 -2.03746,0.0259 -0.37309,0.25149 -1.00203,0.62093 -1.39764,0.82099 -0.80085,0.40498 -0.96894,0.67867 -1.00088,1.62959 -0.0198,0.58863 -0.0217,0.59118 -0.6069,0.78569 -0.61999,0.20608 -2.54698,0.54894 -3.08976,0.54974 -0.17659,2.5e-4 -0.36329,-0.0415 -0.41489,-0.0927 z m 2.3517,-5.00234 c 1.64026,-0.51581 2.75583,-1.19461 3.97721,-2.42005 1.2493,-1.25345 1.80397,-2.10491 2.31861,-3.55921 0.88011,-2.4871 0.69493,-5.08573 -0.53112,-7.45321 -1.25402,-2.421498 -3.34079,-4.105788 -6.01327,-4.853488 -1.24809,-0.34919 -3.29144,-0.37716 -4.59862,-0.0629 -2.80416,0.67405 -5.43045,2.92314 -6.56723,5.624008 -0.66992,1.59164 -0.88255,3.8432 -0.52311,5.53916 0.38872,1.83412 1.19322,3.31346 2.55388,4.69615 1.37079,1.39299 3.00918,2.30081 4.84693,2.68566 1.18483,0.24812 3.43318,0.15094 4.53672,-0.19608 z m -7.78378,-4.0706 c -0.15459,-0.19712 -0.1502,-0.20152 0.0469,-0.0469 0.11963,0.0938 0.2175,0.19169 0.2175,0.2175 0,0.10229 -0.10206,0.0364 -0.26442,-0.17058 z m 4.3109,-2.41743 c -0.74529,-0.20592 -1.61055,-1.13518 -1.80266,-1.93598 -0.40525,-1.68927 0.67417,-3.23781 2.34099,-3.35838 0.89144,-0.0645 1.5069,0.12343 2.09471,0.63954 1.36257,1.19634 1.1654,3.45868 -0.38008,4.361 -0.61418,0.35858 -1.56824,0.48301 -2.25296,0.29382 z m 4.26489,-6.15836 c -0.1546,-0.19712 -0.1502,-0.20152 0.0469,-0.0469 0.11963,0.0938 0.2175,0.19169 0.2175,0.2175 0,0.10229 -0.10206,0.0365 -0.26442,-0.17058 z m 1.55763,-1.55358 -0.23676,-0.27965 0.27964,0.23677 c 0.2628,0.2225 0.33623,0.32252 0.23677,0.32252 -0.0236,0 -0.14943,-0.12584 -0.27965,-0.27964 z"
         id="path867"
         sodipodi:nodetypes="csssscsscsssssssccssssscccsscssscsscsscssssssscsssscsssscsssscscsssssscsssssssscsssssssscccssssscssssssccccscssssscsscccsssccsssscscsssscsssssccsssssscsssscssscccsssscsscsssssscccsssscssssccscsssssssssscsssscsss" />
      <path
         style="fill:#494949;fill-opacity:1;stroke-width:0.124287"
         d="m 149.50316,115.19269 c -0.13672,-0.0519 -0.29052,-0.0702 -0.34179,-0.0405 -0.0513,0.0297 -0.16312,0.0101 -0.24857,-0.0435 -0.0855,-0.0536 -0.29087,-0.11601 -0.4565,-0.13876 -0.16563,-0.0227 -0.41731,-0.10607 -0.55929,-0.18517 -0.14198,-0.0791 -0.28793,-0.14581 -0.32432,-0.14823 -0.19652,-0.0131 -1.11456,-0.49293 -1.11456,-0.58257 0,-0.058 -0.0839,-0.10541 -0.18643,-0.10541 -0.10254,0 -0.18643,-0.0559 -0.18643,-0.12429 0,-0.0684 -0.0431,-0.1103 -0.0957,-0.0932 -0.10772,0.035 -0.24898,-0.0797 -1.18612,-0.96322 -0.36255,-0.34179 -0.69609,-0.71931 -0.7412,-0.83894 -0.0451,-0.11963 -0.13971,-0.2175 -0.21021,-0.2175 -0.0705,0 -0.12819,-0.0839 -0.12819,-0.18643 0,-0.10254 -0.0559,-0.18643 -0.12429,-0.18643 -0.0684,0 -0.12428,-0.0839 -0.12428,-0.18643 0,-0.10254 -0.0592,-0.18643 -0.13162,-0.18643 -0.0724,0 -0.097,-0.0559 -0.0548,-0.12429 0.0423,-0.0684 0.0143,-0.12429 -0.0621,-0.12429 -0.0764,0 -0.1044,-0.0559 -0.0621,-0.12428 0.0423,-0.0684 0.0143,-0.12429 -0.0621,-0.12429 -0.0764,0 -0.1044,-0.0559 -0.0621,-0.12429 0.0423,-0.0683 0.0176,-0.12428 -0.0548,-0.12428 -0.0724,0 -0.11975,-0.0419 -0.10522,-0.0932 0.0145,-0.0513 -0.0434,-0.21905 -0.12866,-0.37286 -0.0853,-0.1538 -0.11829,-0.27964 -0.0733,-0.27964 0.045,0 0.0121,-0.0839 -0.073,-0.18643 -0.0851,-0.10254 -0.11794,-0.18643 -0.073,-0.18643 0.045,0 0.0246,-0.1067 -0.0452,-0.2371 -0.28788,-0.5379 -0.41165,-2.63004 -0.21759,-3.67794 0.0506,-0.27343 0.11179,-0.609 0.13589,-0.74572 0.0241,-0.13672 0.0552,-0.24857 0.0692,-0.24857 0.0139,0 0.0447,-0.10225 0.0684,-0.22721 0.0237,-0.12497 0.0845,-0.32072 0.13512,-0.43501 0.0506,-0.11428 0.0991,-0.23576 0.1076,-0.26994 0.0673,-0.26884 0.64556,-1.36715 0.71984,-1.36715 0.0517,0 0.0939,-0.0839 0.0939,-0.18643 0,-0.10254 0.0559,-0.18643 0.12429,-0.18643 0.0684,0 0.12428,-0.0819 0.12428,-0.18206 0,-0.10013 0.11186,-0.24192 0.24858,-0.31509 0.13671,-0.0732 0.24857,-0.20916 0.24857,-0.30221 0,-0.0931 0.20974,-0.34421 0.46608,-0.55814 0.25634,-0.213928 0.55466,-0.471398 0.66293,-0.572168 0.10827,-0.10076 0.26208,-0.18321 0.34179,-0.18321 0.0797,0 0.14493,-0.0559 0.14493,-0.12428 0,-0.0684 0.0839,-0.12429 0.18643,-0.12429 0.10254,0 0.18643,-0.0423 0.18643,-0.0939 0,-0.0743 1.09832,-0.65257 1.36716,-0.71984 0.0342,-0.009 0.15565,-0.057 0.26994,-0.10761 0.11429,-0.0506 0.28208,-0.1033 0.37286,-0.11704 0.0908,-0.0138 0.23204,-0.0669 0.31389,-0.11801 0.50731,-0.31708 3.22227,-0.33514 4.38764,-0.0292 0.1709,0.0449 0.36665,0.0939 0.43501,0.10887 0.0684,0.015 0.1942,0.071 0.27964,0.12436 0.0855,0.0534 0.15536,0.0638 0.15536,0.0232 0,-0.0406 0.12584,-0.004 0.27965,0.0815 0.1538,0.0854 0.30761,0.16006 0.34179,0.16584 0.28477,0.0482 0.62143,0.2241 0.62143,0.32472 0,0.0678 0.0559,0.0887 0.12429,0.0464 0.0684,-0.0422 0.12428,-0.0176 0.12428,0.0548 0,0.0724 0.0839,0.13162 0.18643,0.13162 0.10254,0 0.18643,0.0559 0.18643,0.12429 0,0.0684 0.0583,0.12429 0.12954,0.12429 0.15086,0 0.24787,0.0795 1.21263,0.994288 0.39653,0.37597 0.75836,0.78145 0.80408,0.90108 0.0457,0.11963 0.1408,0.2175 0.2113,0.2175 0.0705,0 0.12819,0.0839 0.12819,0.18643 0,0.10254 0.0592,0.18643 0.13162,0.18643 0.0724,0 0.10001,0.0512 0.0614,0.11367 -0.0386,0.0625 -0.028,0.13243 0.0237,0.15536 0.13336,0.0592 0.80966,1.3467 0.70737,1.3467 -0.0465,0 -0.0149,0.0839 0.0702,0.18643 0.0851,0.10254 0.11307,0.18643 0.0622,0.18643 -0.0509,0 -0.0316,0.0734 0.0429,0.1632 0.0745,0.0898 0.17342,0.38338 0.21983,0.6525 0.10486,0.60798 0.11399,3.23776 0.0127,3.65863 -0.0411,0.17089 -0.10166,0.42257 -0.13451,0.55929 -0.0328,0.13671 -0.071,0.26255 -0.0848,0.27964 -0.0138,0.0171 -0.039,0.087 -0.0561,0.15536 -0.0171,0.0684 -0.0451,0.15225 -0.0622,0.18643 -0.0171,0.0342 -0.04,0.10409 -0.051,0.15536 -0.011,0.0513 -0.0859,0.2117 -0.16652,0.35652 -0.0806,0.14482 -0.11126,0.29862 -0.0681,0.34179 0.0432,0.0432 0.01,0.0785 -0.0739,0.0785 -0.0838,0 -0.11777,0.0559 -0.0755,0.12429 0.0423,0.0684 0.0143,0.12429 -0.0621,0.12429 -0.0764,0 -0.10439,0.0559 -0.0622,0.12428 0.0423,0.0684 0.0176,0.12429 -0.0548,0.12429 -0.0724,0 -0.13163,0.0839 -0.13163,0.18643 0,0.10254 -0.11185,0.29829 -0.24857,0.43501 -0.13672,0.13671 -0.24857,0.27178 -0.24857,0.30015 0,0.21851 -1.63174,1.81272 -1.85539,1.81272 -0.0586,0 -0.14016,0.0874 -0.18117,0.19431 -0.041,0.10687 -0.13089,0.1595 -0.19973,0.11695 -0.0688,-0.0425 -0.12516,-0.0181 -0.12516,0.0543 0,0.0724 -0.0839,0.13162 -0.18643,0.13162 -0.10254,0 -0.18643,0.0592 -0.18643,0.13162 0,0.0724 -0.0559,0.0971 -0.12429,0.0548 -0.0684,-0.0422 -0.12429,-0.0143 -0.12429,0.0621 0,0.0764 -0.0559,0.10439 -0.12428,0.0622 -0.0684,-0.0422 -0.12429,-0.008 -0.12429,0.0755 0,0.0838 -0.0353,0.11702 -0.0785,0.0739 -0.0432,-0.0432 -0.19698,-0.0125 -0.34179,0.0681 -0.14482,0.0806 -0.30525,0.15555 -0.35652,0.16652 -0.0513,0.011 -0.12118,0.0339 -0.15536,0.051 -0.0342,0.0171 -0.11807,0.0451 -0.18643,0.0621 -0.0684,0.0171 -0.13827,0.0423 -0.15536,0.0561 -0.0313,0.0252 -0.26784,0.0857 -0.83894,0.21461 -0.50123,0.1131 -2.89817,0.14431 -3.16931,0.0413 z m -37.47182,-1.98947 c -0.0964,-0.0596 -0.21983,-0.0807 -0.27436,-0.047 -0.0545,0.0337 -0.16907,0.0176 -0.25451,-0.0358 -0.0855,-0.0534 -0.22964,-0.10831 -0.32042,-0.12205 -0.0908,-0.0137 -0.25858,-0.0664 -0.37287,-0.11705 -0.11428,-0.0506 -0.23576,-0.0996 -0.26994,-0.1089 -0.38627,-0.1047 -0.62143,-0.22997 -0.62143,-0.33105 0,-0.0678 -0.0559,-0.0887 -0.12429,-0.0464 -0.0684,0.0422 -0.12428,0.0176 -0.12428,-0.0548 0,-0.0724 -0.0839,-0.13162 -0.18643,-0.13162 -0.10254,0 -0.18643,-0.0559 -0.18643,-0.12429 0,-0.0684 -0.0559,-0.12429 -0.12429,-0.12429 -0.16206,0 -1.61573,-1.45367 -1.61573,-1.61573 0,-0.0683 -0.0559,-0.12428 -0.12429,-0.12428 -0.0684,0 -0.12428,-0.0839 -0.12428,-0.18643 0,-0.10254 -0.0652,-0.18643 -0.145,-0.18643 -0.0798,0 -0.11038,-0.0346 -0.0681,-0.0769 0.0423,-0.0423 -0.005,-0.15869 -0.10472,-0.2586 -0.0999,-0.0999 -0.14987,-0.23307 -0.11103,-0.29592 0.0388,-0.0628 0.002,-0.11426 -0.0817,-0.11426 -0.0838,0 -0.11554,-0.0368 -0.0706,-0.0818 0.045,-0.045 0.0275,-0.14725 -0.039,-0.22726 -0.0664,-0.08 -0.14566,-0.28091 -0.17612,-0.44644 -0.0305,-0.16553 -0.0667,-0.30096 -0.0805,-0.30096 -0.0896,0 -0.15367,-0.80219 -0.15139,-1.89538 0.003,-1.46389 0.0222,-1.65135 0.19018,-1.8643 0.0674,-0.0855 0.0809,-0.15536 0.03,-0.15536 -0.0509,0 -0.0229,-0.0839 0.0621,-0.18643 0.0851,-0.10253 0.11347,-0.18643 0.0631,-0.18643 -0.0504,0 -4e-5,-0.13982 0.11193,-0.31071 0.11197,-0.1709 0.17034,-0.31072 0.1297,-0.31072 -0.0406,0 0.014,-0.0879 0.12143,-0.19531 0.10741,-0.10742 0.1953,-0.27521 0.1953,-0.37286 0,-0.0977 0.0559,-0.17755 0.12429,-0.17755 0.0684,0 0.12429,-0.0839 0.12429,-0.18643 0,-0.10254 0.0559,-0.18643 0.12428,-0.18643 0.0684,0 0.12521,-0.0699 0.12634,-0.15536 0.002,-0.1907 1.04276,-1.2118 1.23452,-1.2118 0.0761,0 0.17058,-0.0839 0.20993,-0.18643 0.0394,-0.10254 0.14945,-0.18643 0.24467,-0.18643 0.0952,0 0.17313,-0.0592 0.17313,-0.13162 0,-0.0724 0.0559,-0.0971 0.12429,-0.0548 0.0684,0.0422 0.12429,0.0244 0.12429,-0.0397 0,-0.0993 0.61004,-0.418518 0.90108,-0.471508 0.0513,-0.009 0.12118,-0.031 0.15535,-0.0481 0.0342,-0.0171 0.11808,-0.045 0.18643,-0.0621 0.0684,-0.0171 0.13827,-0.0423 0.15536,-0.0561 0.0517,-0.0417 0.3691,-0.11887 1.08751,-0.26446 0.62192,-0.12604 1.41529,-0.10655 2.23716,0.0549 0.1709,0.0336 0.47851,0.0945 0.68358,0.13542 0.4158,0.0829 1.96537,0.822288 2.03002,0.968598 0.0228,0.0516 0.0979,0.0938 0.16687,0.0938 0.16358,0 1.71815,1.55456 1.71815,1.71815 0,0.069 0.0481,0.14408 0.10681,0.16687 0.0933,0.0362 0.59905,1.07179 0.64363,1.31795 0.009,0.0499 0.0643,0.1483 0.12277,0.21878 0.10418,0.12552 0.18393,0.42832 0.34269,1.30115 0.1726,0.94891 0.0316,2.86419 -0.23444,3.18477 -0.078,0.094 -0.10511,0.17097 -0.0602,0.17097 0.045,0 0.0118,0.12584 -0.0736,0.27965 -0.0854,0.1538 -0.16005,0.30761 -0.16584,0.34179 -0.0469,0.27738 -0.22264,0.62143 -0.31738,0.62143 -0.0637,0 -0.11591,0.0791 -0.11591,0.17587 0,0.0967 -0.12585,0.32653 -0.27965,0.51067 -0.84319,1.00947 -1.13358,1.30205 -1.2923,1.30205 -0.0967,0 -0.20806,0.0839 -0.24741,0.18643 -0.0393,0.10254 -0.14945,0.18643 -0.24467,0.18643 -0.0952,0 -0.17314,0.0427 -0.17314,0.0949 0,0.0782 -1.14942,0.68733 -1.36546,0.72366 -0.0351,0.006 -0.14773,0.0462 -0.25027,0.0896 -0.57348,0.24267 -3.17297,0.40013 -3.47938,0.21076 z m 2.54723,-2.16818 c 0.44806,-0.16021 1.49007,-0.6246 1.55358,-0.69238 0.0342,-0.0365 0.21614,-0.16432 0.40436,-0.2841 0.18822,-0.11977 0.49021,-0.45406 0.67108,-0.74285 0.18088,-0.28879 0.36654,-0.55304 0.41258,-0.58721 0.0776,-0.0576 0.26263,-0.47985 0.27227,-0.62144 0.002,-0.0342 0.0586,-0.16365 0.12496,-0.28771 0.19574,-0.36575 0.24848,-0.72038 0.23444,-1.57659 -0.0157,-0.96034 -0.0475,-1.16757 -0.26701,-1.74002 -0.0917,-0.23925 -0.15459,-0.47695 -0.13971,-0.52822 0.0149,-0.0513 -0.0251,-0.0932 -0.0889,-0.0932 -0.0637,0 -0.1526,-0.1156 -0.19745,-0.25689 -0.10572,-0.33311 -1.3338,-1.56119 -1.66692,-1.66692 -0.14129,-0.0448 -0.25689,-0.13369 -0.25689,-0.19744 0,-0.0637 -0.0419,-0.10435 -0.0932,-0.0902 -0.0513,0.0141 -0.38913,-0.075 -0.75081,-0.19812 -0.71688,-0.24397 -2.71309,-0.29155 -2.97779,-0.071 -0.0171,0.0142 -0.073,0.0366 -0.12429,0.0496 -0.17599,0.0448 -1.08755,0.50452 -1.2468,0.62877 -0.48035,0.37478 -1.14572,1.05482 -1.14572,1.17098 0,0.0737 -0.0559,0.13403 -0.12428,0.13403 -0.0684,0 -0.12429,0.0839 -0.12429,0.18643 0,0.10254 -0.0592,0.18643 -0.13162,0.18643 -0.0724,0 -0.0971,0.0559 -0.0548,0.12429 0.0423,0.0684 0.008,0.12429 -0.0755,0.12429 -0.0838,0 -0.11702,0.0353 -0.0738,0.0785 0.0432,0.0432 0.0132,0.19697 -0.0665,0.34179 -0.22408,0.40688 -0.24789,0.55632 -0.27958,1.75475 -0.0163,0.61522 0.0255,1.18849 0.0928,1.27394 0.0673,0.0854 0.0843,0.15535 0.0377,0.15535 -0.0466,0 -0.0403,0.0699 0.014,0.15536 0.0543,0.0854 0.10583,0.18333 0.11462,0.2175 0.0763,0.29709 0.37274,0.87001 0.45009,0.87001 0.0534,0 0.097,0.0533 0.097,0.11837 0,0.15428 1.21878,1.37307 1.37307,1.37307 0.0651,0 0.11837,0.0437 0.11837,0.097 0,0.0796 0.49699,0.33539 0.90108,0.46372 0.0513,0.0163 0.10719,0.0417 0.12428,0.0565 0.0171,0.0148 0.22683,0.0545 0.46608,0.0881 0.23925,0.0336 0.46245,0.0886 0.496,0.12211 0.0829,0.0828 1.6181,-0.026 1.92759,-0.13668 z"
         id="path865"
         sodipodi:nodetypes="csscssssssssssssscssscsscsssccsssscsssssssssssscsccssssccscsssssssssscsssssscssssssssscsssssssssscssscsssccscccsccccscssssssssscsscccsccscsssssssscscsscscsscsscssssccsssscsscscsscccccssssccccssscsccccsssssssscccsccsssssssscc" />
      <path
         style="fill:#333333;fill-opacity:1;stroke-width:0.124287"
         d="m 60.683579,141.59871 c 0,-0.0258 -0.0979,-0.12369 -0.2175,-0.2175 -0.19713,-0.1546 -0.20152,-0.1502 -0.0469,0.0469 0.16237,0.20703 0.26443,0.27287 0.26443,0.17058 z m 42.653611,-0.16226 c -0.0897,-0.0359 -0.19691,-0.0315 -0.23821,0.01 -0.0413,0.0413 0.0321,0.0707 0.16312,0.0653 0.14479,-0.006 0.17424,-0.0354 0.0751,-0.0751 z m -30.961238,-0.50547 0.30131,-0.34178 -0.341791,0.30131 c -0.319452,0.28162 -0.398782,0.38226 -0.301312,0.38226 0.0223,0 0.176071,-0.1538 0.341793,-0.34179 z m 36.173838,-1.24286 c 0.1546,-0.19713 0.1502,-0.20153 -0.0469,-0.0469 -0.11963,0.0938 -0.2175,0.19169 -0.2175,0.2175 0,0.1023 0.10206,0.0365 0.26442,-0.17057 z m 0.62143,-0.62144 c 0.1546,-0.19712 0.1502,-0.20152 -0.0469,-0.0469 -0.11962,0.0938 -0.2175,0.19169 -0.2175,0.2175 0,0.10229 0.10206,0.0365 0.26443,-0.17058 z m -8.84021,-1.08751 c -0.16055,-0.17089 -0.31987,-0.31071 -0.354047,-0.31071 -0.0342,0 0.0692,0.13982 0.229757,0.31071 0.16055,0.1709 0.31987,0.31072 0.35405,0.31072 0.0342,0 -0.0692,-0.13982 -0.22976,-0.31072 z m -40.323191,-9.53901 0.36504,-0.40393 -0.40393,0.36504 c -0.37652,0.34027 -0.46106,0.44282 -0.36504,0.44282 0.0214,0 0.20316,-0.18177 0.40393,-0.40393 z m 6.16769,-2.53957 c -0.0897,-0.0359 -0.19692,-0.0315 -0.23822,0.01 -0.0413,0.0413 0.0321,0.0707 0.16312,0.0653 0.14479,-0.006 0.17424,-0.0354 0.0751,-0.0751 z"
         id="path863-1"
         sodipodi:nodetypes="csscccccccscsssccscccssccsssssscsssccscc" />
      <path
         style="fill:#d0d0d0;fill-opacity:1;stroke-width:0.124287"
         d="m 65.554069,159.33375 c -0.0897,-0.0359 -0.19692,-0.0315 -0.23822,0.01 -0.0413,0.0413 0.0321,0.0707 0.16313,0.0653 0.14479,-0.006 0.17424,-0.0354 0.0751,-0.0751 z m 9.049643,-2.57205 c 0,-0.0258 -0.0979,-0.12368 -0.217501,-0.2175 -0.19713,-0.1546 -0.20153,-0.1502 -0.0469,0.0469 0.162362,0.20704 0.26442,0.27287 0.26442,0.17058 z m 6.57738,-5.36991 c -0.006,-0.14479 -0.0354,-0.17423 -0.0751,-0.0751 -0.0359,0.0897 -0.0315,0.19692 0.01,0.23822 0.0413,0.0413 0.0707,-0.0321 0.0653,-0.16313 z m 0.513663,-1.26358 0.428307,-0.46608 -0.466077,0.42832 c -0.256344,0.23557 -0.466074,0.4453 -0.466074,0.46607 0,0.0949 0.105172,0.006 0.503844,-0.42831 z m -4.282784,-3.66646 0.236762,-0.27965 -0.279641,0.23677 c -0.2628,0.2225 -0.33623,0.32252 -0.23677,0.32252 0.0236,0 0.149429,-0.12584 0.279649,-0.27964 z m 0.56334,-0.55929 c 0.154591,-0.19713 0.150201,-0.20152 -0.0469,-0.0469 -0.207039,0.16237 -0.27287,0.26443 -0.17058,0.26443 0.0258,0 0.12368,-0.0979 0.217501,-0.2175 z m 19.186397,-4.87826 c -0.12372,-0.13672 -0.25292,-0.24857 -0.2871,-0.24857 -0.0342,0 0.0391,0.11185 0.16282,0.24857 0.12372,0.13672 0.25292,0.24857 0.28709,0.24857 0.0342,0 -0.0391,-0.11185 -0.16281,-0.24857 z m 4.785022,-4.52125 c 0,-0.0258 -0.0979,-0.12369 -0.2175,-0.2175 -0.19712,-0.1546 -0.20152,-0.1502 -0.0469,0.0469 0.16237,0.20703 0.26443,0.27287 0.26443,0.17058 z m -19.522768,-1.01987 c -0.006,-0.14479 -0.0354,-0.17424 -0.0751,-0.0751 -0.0359,0.0897 -0.0315,0.19692 0.01,0.23822 0.0413,0.0413 0.0707,-0.0321 0.0653,-0.16313 z m -7.356959,-0.79751 c 0,-0.30761 -0.02421,-0.43345 -0.0539,-0.27964 -0.0296,0.1538 -0.0296,0.40548 0,0.55929 0.0296,0.1538 0.0539,0.028 0.0539,-0.27965 z m 38.165597,-0.31071 c -0.002,-0.20508 -0.0304,-0.27393 -0.0619,-0.153 -0.0315,0.12093 -0.0294,0.28872 0.005,0.37286 0.034,0.0841 0.0598,-0.0148 0.0573,-0.21986 z m -6.58259,0.0621 c 0,-0.1709 -0.0282,-0.24081 -0.0627,-0.15536 -0.0345,0.0854 -0.0345,0.22527 0,0.31072 0.0345,0.0854 0.0627,0.0155 0.0627,-0.15536 z m -10.071819,-0.0621 c -0.002,-0.20508 -0.0304,-0.27393 -0.0619,-0.153 -0.0315,0.12093 -0.0294,0.28872 0.005,0.37286 0.0341,0.0841 0.0598,-0.0148 0.0573,-0.21986 z m -14.154229,-0.38322 c -0.006,-0.14479 -0.0354,-0.17424 -0.0751,-0.0751 -0.0359,0.0897 -0.0315,0.19691 0.01,0.23821 0.0413,0.0413 0.0707,-0.0321 0.0653,-0.16312 z m -9.93313,-5.58255 c -0.16055,-0.1709 -0.319873,-0.31072 -0.354053,-0.31072 -0.0342,0 0.0692,0.13982 0.229762,0.31072 0.160552,0.17089 0.319871,0.31071 0.35405,0.31071 0.0342,0 -0.0692,-0.13982 -0.229759,-0.31071 z m 31.474118,-1.26863 c -0.15461,-0.0297 -0.37832,-0.0286 -0.49715,0.003 -0.11883,0.0311 0.008,0.0554 0.28109,0.0541 0.27343,-10e-4 0.37066,-0.0268 0.21606,-0.0566 z M 66.680419,125.7789 c -0.0854,-0.0345 -0.22527,-0.0345 -0.31072,0 -0.0854,0.0345 -0.0155,0.0627 0.15536,0.0627 0.1709,0 0.24081,-0.0282 0.15536,-0.0627 z m -0.87778,-0.003 c -0.0897,-0.0359 -0.19691,-0.0315 -0.23821,0.01 -0.0413,0.0413 0.0321,0.0707 0.16312,0.0653 0.14479,-0.006 0.17424,-0.0354 0.0751,-0.0751 z m 1.24287,-7.33293 c -0.0897,-0.0359 -0.19691,-0.0315 -0.23821,0.01 -0.0413,0.0413 0.0321,0.0707 0.16312,0.0653 0.14479,-0.006 0.17424,-0.0354 0.0751,-0.0751 z m 14.125773,-0.41224 c 0,-0.1709 -0.0282,-0.24081 -0.0627,-0.15536 -0.0345,0.0854 -0.0345,0.22527 0,0.31072 0.0345,0.0854 0.0627,0.0155 0.0627,-0.15536 z"
         id="path877-8"
         sodipodi:nodetypes="ccscccsccccscccccsscscsssscsssssssscsscccscccscsscscccsssscsccccscccssssscccccssssccsccccsccssss" />
      <path
         style="fill:#b9b9b9;fill-opacity:1;stroke-width:0.124287"
         d="m 45.718829,147.08318 0.23677,-0.27964 -0.27965,0.23676 c -0.1538,0.13022 -0.27964,0.25606 -0.27964,0.27965 0,0.0995 0.10002,0.026 0.32252,-0.23677 z m 58.371851,-3.2881 c -0.1538,-0.0296 -0.40548,-0.0296 -0.55929,0 -0.1538,0.0296 -0.028,0.0539 0.27965,0.0539 0.30761,0 0.43345,-0.0242 0.27964,-0.0539 z m 11.42662,-2.73149 c -0.0897,-0.0359 -0.19692,-0.0315 -0.23822,0.01 -0.0413,0.0413 0.0321,0.0707 0.16313,0.0653 0.14479,-0.006 0.17424,-0.0354 0.0751,-0.0751 z m -2.27028,-6.20194 c -0.006,-0.14479 -0.0354,-0.17424 -0.0751,-0.0751 -0.0359,0.0897 -0.0315,0.19691 0.01,0.23821 0.0413,0.0413 0.0707,-0.0321 0.0653,-0.16312 z m 0,-0.9943 c -0.006,-0.14479 -0.0354,-0.17424 -0.0751,-0.0751 -0.0359,0.0897 -0.0315,0.19692 0.01,0.23822 0.0413,0.0413 0.0707,-0.0321 0.0653,-0.16313 z m -71.464841,-0.12429 c -0.006,-0.14478 -0.0354,-0.17423 -0.0751,-0.0751 -0.0359,0.0897 -0.0315,0.19692 0.01,0.23822 0.0413,0.0413 0.0707,-0.0321 0.0653,-0.16313 z m 24.39333,-7.96675 c -0.0897,-0.0359 -0.19692,-0.0315 -0.23822,0.01 -0.0413,0.0413 0.0321,0.0707 0.16312,0.0653 0.14479,-0.006 0.17424,-0.0354 0.0751,-0.0751 z m -1.11859,-7.33293 c -0.0897,-0.0359 -0.19691,-0.0315 -0.23821,0.01 -0.0413,0.0413 0.0321,0.0707 0.16312,0.0653 0.14479,-0.006 0.17424,-0.0354 0.0751,-0.0751 z"
         id="path875-9"
         sodipodi:nodetypes="scssscsscccccccsccccsccccscccccsccccscc" />
      <path
         style="fill:#a3a3a3;fill-opacity:1;stroke-width:0.124287"
         d="m 49.373479,152.54398 c 0,-0.0214 -0.18177,-0.20316 -0.40393,-0.40393 l -0.40393,-0.36504 0.36504,0.40393 c 0.34027,0.37652 0.44282,0.46106 0.44282,0.36504 z m 5.46862,-6.09809 c 0,-0.0258 -0.0979,-0.12368 -0.2175,-0.2175 -0.19713,-0.15459 -0.20152,-0.1502 -0.0469,0.0469 0.16237,0.20703 0.26443,0.27287 0.26443,0.17057 z m 39.398884,-1.60769 c 0,-0.0214 -0.181767,-0.20316 -0.403927,-0.40393 l -0.403927,-0.36504 0.365037,0.40393 c 0.34027,0.37652 0.442817,0.46106 0.442817,0.36504 z m -52.458804,-9.47941 c -0.006,-0.14478 -0.0354,-0.17423 -0.0751,-0.0751 -0.0359,0.0897 -0.0315,0.19692 0.01,0.23822 0.0413,0.0413 0.0707,-0.0321 0.0653,-0.16313 z m 0,-1.24287 c -0.006,-0.14478 -0.0354,-0.17423 -0.0751,-0.0751 -0.0359,0.0897 -0.0315,0.19692 0.01,0.23822 0.0413,0.0413 0.0707,-0.0321 0.0653,-0.16313 z m 65.571031,-3.15895 c -0.12373,-0.13672 -0.25292,-0.24858 -0.2871,-0.24858 -0.0342,0 0.0391,0.11186 0.16281,0.24858 0.12373,0.13671 0.25292,0.24857 0.2871,0.24857 0.0342,0 -0.0391,-0.11186 -0.16281,-0.24857 z m 1.55358,-1.67787 c -0.16054,-0.1709 -0.31986,-0.31072 -0.35404,-0.31072 -0.0342,0 0.0692,0.13982 0.22976,0.31072 0.16054,0.17089 0.31987,0.31071 0.35404,0.31071 0.0342,0 -0.0692,-0.13982 -0.22976,-0.31071 z m -31.195909,-6.09006 c -0.231889,-0.23925 -0.449588,-0.435 -0.48377,-0.435 -0.0342,0 0.12759,0.19575 0.359482,0.435 0.231889,0.23925 0.449588,0.43501 0.483769,0.43501 0.0342,0 -0.12759,-0.19576 -0.359481,-0.43501 z"
         id="path873-64"
         sodipodi:nodetypes="sscsscssccsscsscsccccscccsssssssssssssss" />
      <path
         style="fill:#8c8c8c;fill-opacity:1;stroke-width:0.124287"
         d="m 66.493989,151.00241 c -0.18798,-0.0285 -0.49559,-0.0285 -0.68358,0 -0.18798,0.0285 -0.0342,0.0518 0.34179,0.0518 0.37597,0 0.52977,-0.0233 0.34179,-0.0518 z m -12.02475,-4.92938 c 0,-0.0258 -0.0979,-0.12368 -0.2175,-0.2175 -0.19713,-0.15459 -0.20152,-0.1502 -0.0469,0.0469 0.16237,0.20703 0.26443,0.27287 0.26443,0.17057 z m 11.20912,-2.52371 c -0.0897,-0.0359 -0.19692,-0.0315 -0.23822,0.01 -0.0413,0.0413 0.0321,0.0707 0.16313,0.0653 0.14479,-0.006 0.17424,-0.0354 0.0751,-0.0751 z m 38.528841,-1.98859 c -0.0897,-0.0359 -0.19692,-0.0315 -0.23822,0.01 -0.0413,0.0413 0.0321,0.0707 0.16313,0.0653 0.14479,-0.006 0.17424,-0.0354 0.0751,-0.0751 z m -0.62143,0 c -0.0897,-0.0359 -0.19692,-0.0315 -0.23822,0.01 -0.0413,0.0413 0.0321,0.0707 0.16313,0.0653 0.14478,-0.006 0.17423,-0.0354 0.0751,-0.0751 z m 6.94616,-0.50546 0.30131,-0.34179 -0.34179,0.30131 c -0.31945,0.28162 -0.39878,0.38227 -0.30131,0.38227 0.0223,0 0.17607,-0.1538 0.34179,-0.34179 z m -38.091427,-0.0621 0.236759,-0.27966 -0.27964,0.23677 c -0.262803,0.2225 -0.336233,0.32252 -0.236773,0.32252 0.0236,0 0.149434,-0.12584 0.279654,-0.27963 z m 27.952647,-3.0761 c -0.12373,-0.13672 -0.25292,-0.24857 -0.2871,-0.24857 -0.0342,0 0.0391,0.11185 0.16281,0.24857 0.12373,0.13672 0.25292,0.24857 0.2871,0.24857 0.0342,0 -0.0391,-0.11185 -0.16281,-0.24857 z m 5.42233,-1.58466 c 0.15459,-0.19712 0.1502,-0.20152 -0.0469,-0.0469 -0.11963,0.0938 -0.2175,0.19169 -0.2175,0.2175 0,0.10229 0.10206,0.0365 0.26442,-0.17058 z m -55.985631,-1.58465 c -5.3e-4,-0.47851 -0.023,-0.65903 -0.0499,-0.40116 -0.0269,0.25786 -0.0265,0.64937 10e-4,0.87 0.0275,0.22064 0.0495,0.01 0.0489,-0.46884 z m 58.933031,-0.31072 c 0,-0.1709 -0.0282,-0.24081 -0.0627,-0.15536 -0.0345,0.0854 -0.0345,0.22527 0,0.31072 0.0345,0.0854 0.0627,0.0155 0.0627,-0.15536 z m -7.71038,-0.0621 c -0.002,-0.20508 -0.0304,-0.27393 -0.0619,-0.153 -0.0315,0.12093 -0.0294,0.28872 0.005,0.37286 0.034,0.0841 0.0598,-0.0148 0.0573,-0.21986 z M 67.332929,112.81109 c -0.12373,-0.13671 -0.25293,-0.24857 -0.2871,-0.24857 -0.0342,0 0.0391,0.11186 0.16281,0.24857 0.12373,0.13672 0.25292,0.24858 0.2871,0.24858 0.0342,0 -0.0391,-0.11186 -0.16281,-0.24858 z"
         id="path871-9"
         sodipodi:nodetypes="sssscssccccsccccccccccccscsssscssssssssscsssssssssssscscccsssss" />
      <path
         style="fill:#767676;fill-opacity:1;stroke-width:0.124287"
         d="m 58.539359,157.11934 c -10e-4,-0.27343 -0.0268,-0.37065 -0.0566,-0.21605 -0.0297,0.1546 -0.0286,0.37832 0.003,0.49715 0.0311,0.11883 0.0554,-0.008 0.0541,-0.2811 z m 8.63821,-6.11022 c -0.0855,-0.0345 -0.22527,-0.0345 -0.31072,0 -0.0854,0.0345 -0.0155,0.0627 0.15536,0.0627 0.17089,0 0.2408,-0.0282 0.15536,-0.0627 z m -1.74002,0 c -0.0855,-0.0345 -0.22527,-0.0345 -0.31071,0 -0.0855,0.0345 -0.0155,0.0627 0.15535,0.0627 0.1709,0 0.24081,-0.0282 0.15536,-0.0627 z m 34.003827,-3.64629 c 0,-0.1709 -0.0282,-0.24081 -0.0627,-0.15536 -0.0345,0.0854 -0.0345,0.22527 0,0.31072 0.0345,0.0854 0.0627,0.0155 0.0627,-0.15536 z m -33.071677,-3.81428 c -0.11962,-0.0313 -0.31537,-0.0313 -0.435,0 -0.11963,0.0313 -0.0217,0.0568 0.2175,0.0568 0.23925,0 0.33713,-0.0256 0.2175,-0.0568 z m 46.523681,-0.3804 0.30131,-0.34179 -0.34179,0.30131 c -0.31945,0.28162 -0.39878,0.38227 -0.30131,0.38227 0.0223,0 0.17607,-0.15381 0.34179,-0.34179 z m -8.81047,-3.84458 c -0.0897,-0.0359 -0.19691,-0.0315 -0.23821,0.01 -0.0413,0.0413 0.0321,0.0707 0.16312,0.0653 0.14479,-0.006 0.17424,-0.0354 0.0751,-0.0751 z m -54.222091,-3.59192 c -0.006,-0.14478 -0.0354,-0.17423 -0.0751,-0.0751 -0.0359,0.0897 -0.0315,0.19692 0.01,0.23822 0.0413,0.0413 0.0707,-0.0321 0.0653,-0.16313 z m 66.617661,-0.74572 c -0.006,-0.14479 -0.0354,-0.17424 -0.0751,-0.0751 -0.0359,0.0897 -0.0315,0.19692 0.01,0.23822 0.0413,0.0413 0.0707,-0.0321 0.0653,-0.16313 z m -26.73142,-0.0518 c 0,-0.1709 -0.0282,-0.24081 -0.0627,-0.15536 -0.0345,0.0854 -0.0345,0.22527 0,0.31071 0.0345,0.0855 0.0627,0.0155 0.0627,-0.15535 z m -32.453071,-0.24858 c 0,-0.30761 -0.0242,-0.43345 -0.0539,-0.27964 -0.0296,0.1538 -0.0296,0.40548 0,0.55929 0.0296,0.1538 0.0539,0.028 0.0539,-0.27965 z m -15.53334,0.0622 c -10e-4,-0.27344 -0.0268,-0.37066 -0.0566,-0.21606 -0.0297,0.1546 -0.0286,0.37832 0.003,0.49715 0.0311,0.11883 0.0554,-0.008 0.054,-0.28109 z m 52.569074,-0.37286 c -9.8e-4,-0.34179 -0.0251,-0.46686 -0.0536,-0.27794 -0.0286,0.18892 -0.0278,0.46857 0.002,0.62143 0.0295,0.15287 0.0529,-0.002 0.0519,-0.34349 z m 16.661117,0.0621 c 0,-0.23925 -0.0256,-0.33713 -0.0568,-0.2175 -0.0313,0.11962 -0.0313,0.31537 0,0.435 0.0313,0.11963 0.0568,0.0218 0.0568,-0.2175 z m -21.23397,-0.56965 c -0.006,-0.14479 -0.0354,-0.17424 -0.0751,-0.0751 -0.0359,0.0897 -0.0315,0.19692 0.01,0.23822 0.0413,0.0413 0.0707,-0.0321 0.0653,-0.16313 z m 26.72161,-0.12429 c -0.006,-0.14478 -0.0354,-0.17423 -0.0751,-0.0751 -0.0359,0.0897 -0.0315,0.19692 0.01,0.23822 0.0413,0.0413 0.0707,-0.0321 0.0653,-0.16313 z m -66.617661,0 c -0.006,-0.14478 -0.0354,-0.17423 -0.0751,-0.0751 -0.0359,0.0897 -0.0315,0.19692 0.01,0.23822 0.0413,0.0413 0.0707,-0.0321 0.0653,-0.16313 z m 54.413931,-8.83799 c -0.12093,-0.0315 -0.28872,-0.0294 -0.37286,0.005 -0.0842,0.034 0.0148,0.0598 0.21986,0.0573 0.20508,-0.003 0.27392,-0.0304 0.153,-0.0619 z m -0.74573,0 c -0.12092,-0.0315 -0.28871,-0.0294 -0.37286,0.005 -0.0841,0.034 0.0148,0.0598 0.21987,0.0573 0.20507,-0.003 0.27392,-0.0304 0.15299,-0.0619 z m -48.919641,-1.7471 c 0.1546,-0.19713 0.1502,-0.20152 -0.0469,-0.0469 -0.20703,0.16237 -0.27287,0.26443 -0.17058,0.26443 0.0258,0 0.12368,-0.0979 0.2175,-0.2175 z m -8.90236,-0.90108 c -0.12372,-0.13672 -0.25292,-0.24857 -0.2871,-0.24857 -0.0342,0 0.0391,0.11185 0.16282,0.24857 0.12372,0.13672 0.25292,0.24857 0.2871,0.24857 0.0342,0 -0.0391,-0.11185 -0.16282,-0.24857 z m 53.729757,-0.80786 c -0.002,-0.20508 -0.0304,-0.27392 -0.0619,-0.153 -0.0315,0.12093 -0.0294,0.28872 0.005,0.37286 0.034,0.0841 0.0598,-0.0148 0.0573,-0.21986 z m -17.686571,-2.05074 c -0.267,-0.27343 -0.513423,-0.49714 -0.547602,-0.49714 -0.0342,0 0.156308,0.22371 0.423312,0.49714 0.267,0.27343 0.513417,0.49715 0.547597,0.49715 0.0342,0 -0.15631,-0.22372 -0.423307,-0.49715 z m -23.210846,-7.14649 c -10e-4,-0.27343 -0.0268,-0.37065 -0.0566,-0.21605 -0.0297,0.1546 -0.0286,0.37832 0.003,0.49715 0.0311,0.11882 0.0554,-0.008 0.0541,-0.2811 z"
         id="path869-5"
         sodipodi:nodetypes="cccccsssssssssssscsscscsssccccccsccccscccssssscssccccccccccscsscsccccsccccscccccccccccccsssssssssscscccsssssccccc" />
      <path
         style="fill:#999999;fill-opacity:1;stroke-width:0.124287"
         d="m 55.70066,142.42247 c 0.09189,-0.006 0.197681,-0.10471 0.235,-0.21887 0.123097,-0.37655 1.211996,-1.37128 1.809241,-1.65278 0.558861,-0.26341 0.647709,-0.26366 1.871079,-0.005 0.706405,0.14908 1.87565,0.31586 2.598325,0.37059 l 1.313971,0.0995 0.386311,0.3881 c 0.484306,0.48653 0.95776,1.27855 1.183662,1.9801 l 0.173838,0.53986 1.273964,-0.1374 c 1.527307,-0.16471 3.401212,-0.56361 4.931995,-1.04985 1.063117,-0.33769 1.118289,-0.37281 1.040313,-0.66198 -0.121604,-0.45091 -0.01516,-1.7516 0.196268,-2.39834 0.176455,-0.53977 0.239149,-0.59542 1.403583,-1.24625 0.670381,-0.3747 1.720533,-1.03375 2.333676,-1.46457 0.707623,-0.49721 1.235591,-0.77822 1.445554,-0.76937 0.448703,0.0189 2.01306,0.53834 2.48971,0.82664 l 0.386742,0.23396 0.931522,-0.97984 c 1.141507,-1.20072 2.104825,-2.41754 2.845883,-3.59478 0.308464,-0.49003 0.617719,-0.97346 0.687221,-1.0743 0.09448,-0.13712 0.0049,-0.29656 -0.355388,-0.63245 -0.264971,-0.24702 -0.677326,-0.8409 -0.916327,-1.31974 l -0.434565,-0.87061 0.89886,-2.72706 0.89886,-2.72705 0.455787,-0.2828 c 0.575843,-0.3573 1.40179,-0.66728 2.053823,-0.77081 l 0.505676,-0.0803 0.06994,-0.79729 c 0.145727,-1.6614 0.102367,-3.3792 -0.135537,-5.36911 -0.116725,-0.97646 -0.194488,-1.23922 -0.362209,-1.22396 -0.402113,0.0366 -2.254525,-0.52385 -2.687397,-0.81298 -0.357167,-0.23864 -0.474895,-0.44792 -0.70086,-1.24591 -0.149374,-0.52751 -0.599076,-1.65117 -0.999348,-2.49703 l -0.727755,-1.53792 0.359935,-0.88991 c 0.223794,-0.55321 0.540373,-1.09463 0.836747,-1.43105 l 0.476764,-0.54115 -0.253696,-0.39831 c -1.007783,-1.5823 -4.274691,-5.06317 -4.730345,-5.04016 -0.121323,0.006 -0.233256,0.0499 -0.248727,0.0972 -0.05665,0.17329 -1.504178,0.84277 -2.104475,0.97332 -0.4186,0.091 -0.715186,0.0804 -0.919522,-0.0329 -0.165884,-0.092 -0.870348,-0.49747 -1.565433,-0.90112 -0.695114,-0.40364 -1.666275,-0.90798 -2.15814,-1.12074 l -0.894319,-0.38684 -0.308224,-0.84078 c -0.175272,-0.47806 -0.301762,-1.14894 -0.293189,-1.55505 0.0083,-0.39284 -0.0058,-0.76721 -0.03121,-0.83193 -0.123206,-0.3135 -4.3202,-1.03391 -6.326061,-1.08585 l -0.987364,-0.0256 -0.08812,0.42886 c -0.117047,0.5698 -0.770512,1.79557 -1.181138,2.21569 -0.265033,0.27115 -0.60016,0.37943 -1.721538,0.55624 -0.76584,0.12075 -1.9573,0.37658 -2.647695,0.56852 l -1.255257,0.34896 -0.678633,-0.37979 c -0.610824,-0.34185 -1.303113,-0.94949 -1.713621,-1.5041 -0.202393,-0.27344 -0.799146,-0.0605 -2.367461,0.84473 -1.568379,0.90528 -2.233938,1.34429 -3.269726,2.156727 l -0.851733,0.668083 0.291613,0.63664 c 0.372311,0.81284 0.542994,2.02386 0.361361,2.56405 -0.0783,0.23308 -0.51656,0.83134 -0.9844,1.34402 -0.463746,0.5082 -1.14666,1.37352 -1.51758,1.92295 -0.370921,0.54942 -0.750128,1.04846 -0.842693,1.10897 -0.31004,0.2027 -1.83269,0.32869 -2.491013,0.20612 -0.476996,-0.0888 -0.711612,-0.0669 -0.876465,0.0819 -0.160786,0.1451 -0.514393,1.08806 -1.23749,3.29999 -0.850308,2.60106 -0.992549,3.13239 -0.888819,3.31884 0.06798,0.12207 0.465682,0.43173 0.883823,0.68806 0.418147,0.25634 0.974384,0.71519 1.236086,1.01968 0.472239,0.54944 0.475493,0.56308 0.431446,1.80767 -0.02441,0.68974 0.01083,1.88919 0.07832,2.66548 0.0931,1.07112 0.07657,1.49092 -0.06859,1.74117 -0.297805,0.51341 -1.073194,1.24125 -1.712258,1.60726 -0.549825,0.31491 -0.578118,0.35324 -0.519836,0.7042 0.144185,0.86811 1.099642,3.43239 1.836367,4.92847 l 0.79491,1.61422 0.642492,-0.18154 c 0.794048,-0.22439 1.749619,-0.24144 2.359298,-0.0421 0.364079,0.11902 0.644958,0.3774 1.328498,1.22205 0.476735,0.58912 1.277198,1.47475 1.778791,1.96807 0.905195,0.89024 0.912258,0.90253 0.94713,1.6467 0.0219,0.46739 -0.06095,1.07691 -0.219987,1.61839 -0.140296,0.47776 -0.220259,0.92737 -0.177594,0.99919 0.100971,0.17004 1.463379,1.07712 2.519264,1.6773 1.508241,0.85731 3.434958,1.67879 3.868612,1.64945 z m 0.07981,-8.84476 c -5.155409,-2.84665 -8.463634,-8.47403 -8.461087,-14.39255 7.74e-4,-1.80306 0.213867,-3.04545 0.861828,-5.02464 0.422535,-1.29082 0.756062,-2.10262 1.130589,-2.75225 1.534979,-2.66256 3.576656,-4.77101 5.983097,-6.17882 3.314973,-1.9393 7.065177,-2.69053 10.751413,-2.1537 1.46662,0.21359 3.922656,1.01963 5.263836,1.7271 2.038611,1.07607 3.931334,2.68623 5.40318,4.59656 0.894059,1.16041 2.192904,3.72765 2.614987,5.16866 0.497607,1.69884 0.75765,4.01002 0.647799,5.75742 -0.126293,2.00874 -0.85694,4.63239 -1.784918,6.40941 -1.670399,3.19866 -4.106547,5.5678 -7.356746,7.15438 -3.424467,1.67165 -6.815052,2.08959 -10.784735,1.32941 -0.799739,-0.15315 -3.348728,-1.13323 -4.269112,-1.64138 z m 39.118865,10.40234 c 0.06499,-0.0327 0.237267,-0.19703 0.382873,-0.36518 0.145657,-0.16814 0.458135,-0.42544 0.694506,-0.57175 0.376882,-0.23328 0.531605,-0.24378 1.257237,-0.0853 0.45512,0.0993 1.15792,0.2018 1.56182,0.22758 0.71523,0.0457 0.74355,0.0581 1.086559,0.47614 0.19371,0.2361 0.42544,0.60643 0.51494,0.82297 0.18228,0.44099 0.24353,0.45104 1.53458,0.25187 0.56643,-0.0874 2.67753,-0.6133 2.68972,-0.67006 10e-4,-0.007 0.009,-0.29945 0.0164,-0.65005 0.0231,-1.07943 0.13645,-1.25912 1.15658,-1.83369 0.50686,-0.28548 1.15591,-0.67494 1.44235,-0.86547 l 0.52081,-0.34643 0.88662,0.30563 0.88663,0.30563 0.61267,-0.66545 c 0.52454,-0.56973 1.10134,-1.32434 1.74272,-2.27998 0.12637,-0.18832 0.0793,-0.33387 -0.24568,-0.7594 -0.64326,-0.84232 -0.6468,-0.97962 -0.071,-2.75221 l 0.50832,-1.5646 0.66941,-0.30599 c 0.36817,-0.1683 0.71806,-0.29009 0.77754,-0.27065 0.0595,0.0195 0.15628,-0.0239 0.21512,-0.0963 0.15105,-0.18593 0.19921,-2.06282 0.0816,-3.18368 l -0.099,-0.94351 -0.70826,-0.16252 c -0.97147,-0.2229 -1.21367,-0.40623 -1.39169,-1.05257 -0.0842,-0.30593 -0.3451,-0.9738 -0.57975,-1.48415 -0.47001,-1.02232 -0.44554,-1.34574 0.16125,-2.1305 0.17462,-0.22583 0.30478,-0.46306 0.28925,-0.52718 -0.0608,-0.25108 -1.15912,-1.56547 -1.92099,-2.29891 l -0.80247,-0.77252 -0.55488,0.3178 c -0.83512,0.47829 -1.18924,0.46733 -2.08586,-0.0646 -0.41045,-0.24351 -1.03683,-0.57786 -1.39194,-0.74301 -0.57708,-0.2684 -0.66244,-0.35643 -0.80347,-0.82894 -0.0868,-0.29077 -0.16153,-0.72061 -0.1661,-0.95521 l -0.008,-0.42653 -0.68994,-0.15064 c -0.90864,-0.19846 -1.89586,-0.33142 -2.80422,-0.37778 -0.669399,-0.0342 -0.739749,-0.0104 -0.758489,0.25669 -0.0114,0.16189 -0.1964,0.55188 -0.41121,0.86662 -0.35549,0.52089 -0.44927,0.58003 -1.04447,0.65864 -0.35964,0.0475 -1.04471,0.18934 -1.522367,0.31517 -1.016208,0.26769 -1.36844,0.18552 -2.056899,-0.4799 l -0.496812,-0.48019 -0.519337,0.24726 c -0.579108,0.27573 -2.495451,1.53838 -2.830547,1.86501 -0.167118,0.16289 -0.185413,0.23537 -0.08093,0.3203 0.07432,0.0604 0.191998,0.4486 0.261537,0.86271 l 0.126428,0.75293 -0.671037,0.81443 c -0.369073,0.44793 -0.824054,1.02919 -1.011074,1.29168 -0.264883,0.37178 -0.461511,0.5021 -0.889646,0.58965 -0.302286,0.0618 -0.719088,0.0579 -0.926214,-0.009 -0.500931,-0.1606 -0.583413,-0.0289 -1.235021,1.97366 -0.548351,1.68382 -0.573979,2.01228 -0.170226,2.14696 0.105553,0.0352 0.424005,0.28099 0.707698,0.5462 0.431564,0.40343 0.508122,0.55106 0.468711,0.90381 -0.02594,0.23189 -0.01529,0.94908 0.02361,1.59375 0.08011,1.32797 -0.03953,1.61218 -0.907189,2.15521 l -0.471039,0.29481 0.246405,0.855 c 0.13552,0.47025 0.48238,1.34894 0.770807,1.95266 l 0.524404,1.09765 0.538184,-0.10594 c 0.994764,-0.19579 1.3611,-0.0709 1.928546,0.65771 0.276477,0.35497 0.759484,0.90155 1.073347,1.21463 0.635364,0.63378 0.710091,0.94615 0.444974,1.85992 -0.164083,0.56565 -0.163069,0.56866 0.332721,0.93538 0.525263,0.38852 2.250331,1.31318 2.765994,1.4826 0.167771,0.0551 0.358202,0.0734 0.423157,0.0408 z m -0.680932,-5.48546 c -1.398788,-0.99994 -2.248207,-1.99178 -3.028346,-3.53607 -0.797974,-1.57959 -1.060614,-2.56125 -1.097887,-4.10348 -0.06373,-2.63745 0.919744,-5.04991 2.820734,-6.91924 1.944363,-1.91198 4.451177,-2.86448 7.223686,-2.74476 1.29482,0.0559 3.24572,0.66424 4.39054,1.36912 2.45591,1.51201 4.25335,4.46583 4.49463,7.38623 0.14219,1.72101 -0.35532,3.92719 -1.22395,5.42751 -0.93939,1.62255 -2.16373,2.77868 -3.88668,3.67013 -1.73577,0.8981 -3.57515,1.25189 -5.441519,1.04665 -1.20328,-0.13232 -3.310134,-0.92331 -4.25122,-1.59605 z m 8.663327,-1.45048 c 0.20819,-0.13932 0.20539,-0.14487 -0.03,-0.0591 -0.14286,0.052 -0.2663,0.11462 -0.27432,0.13915 -0.0318,0.0972 0.0857,0.0663 0.30434,-0.08 z m -3.346359,-3.63727 c 0.772389,0.0359 1.883569,-0.57855 2.314999,-1.28002 0.91009,-1.47972 0.36527,-3.28701 -1.18157,-3.91954 -0.82728,-0.3383 -1.470669,-0.35091 -2.189759,-0.043 -1.666852,0.71374 -2.18241,2.92535 -0.99381,4.26323 0.47236,0.53167 1.34053,0.94639 2.05014,0.97933 z m -2.14021,-7.17873 c 0.2082,-0.13933 0.20538,-0.14488 -0.03,-0.0591 -0.14286,0.052 -0.2663,0.11462 -0.27432,0.13915 -0.0318,0.0972 0.0857,0.0664 0.30433,-0.08 z m -0.997779,-1.96067 0.311932,-0.19224 -0.339366,0.13816 c -0.318928,0.12982 -0.419799,0.20208 -0.325265,0.23298 0.02243,0.007 0.181135,-0.0732 0.352699,-0.1789 z"
         id="path867-70"
         sodipodi:nodetypes="csssscsscsssssssccssssscccsscssscsscsscssssssscsssscsssscsssscscsssssscsssssssscsssssssscccssssscssssssccccscssssscsscccsssccsssscscsssscsssssccsssssscsssscssscccsssscsscsssssscccsssscssssccscsssssssssscsssscsss" />
      <path
         style="fill:#494949;fill-opacity:1;stroke-width:0.124287"
         d="m 62.534659,127.6741 c 0.146165,-0.005 0.297694,0.0266 0.336741,0.0713 0.03907,0.0445 0.151275,0.0618 0.249398,0.0385 0.09817,-0.0233 0.312732,-0.0163 0.476893,0.0149 0.164166,0.0316 0.429289,0.0333 0.589134,0.004 0.159845,-0.0294 0.319475,-0.0458 0.35472,-0.0365 0.190352,0.0506 1.213749,-0.10972 1.242483,-0.19461 0.01859,-0.0549 0.113257,-0.073 0.21038,-0.0401 0.09713,0.0329 0.194513,0.007 0.216429,-0.058 0.02193,-0.0648 0.07618,-0.0907 0.120522,-0.0576 0.09081,0.0677 0.261388,0.004 1.432278,-0.53222 0.452972,-0.20755 0.889919,-0.45824 0.970992,-0.5571 0.08107,-0.0988 0.202054,-0.16126 0.268835,-0.13866 0.06678,0.0226 0.148317,-0.0383 0.181181,-0.1355 0.03287,-0.0971 0.112704,-0.15868 0.177485,-0.13676 0.06479,0.0219 0.144614,-0.0397 0.177478,-0.13676 0.03288,-0.0971 0.115832,-0.15762 0.184432,-0.13441 0.06858,0.0232 0.109796,-0.0219 0.09174,-0.10018 -0.01814,-0.0783 0.0263,-0.12231 0.09866,-0.0979 0.07237,0.0245 0.116807,-0.0196 0.09866,-0.0979 -0.01814,-0.0783 0.02628,-0.12231 0.09866,-0.0979 0.07237,0.0245 0.116807,-0.0196 0.09866,-0.0979 -0.01818,-0.0782 0.02317,-0.12336 0.09174,-0.10018 0.06858,0.0232 0.12683,-0.002 0.129539,-0.0545 0.0028,-0.0532 0.11132,-0.19359 0.241384,-0.31195 0.130095,-0.11835 0.201679,-0.22698 0.159063,-0.2414 -0.04262,-0.0144 0.01545,-0.0833 0.128903,-0.15319 0.113479,-0.0698 0.171472,-0.13879 0.128904,-0.1532 -0.04262,-0.0144 0.0109,-0.10895 0.118811,-0.2101 0.4451,-0.41725 1.232916,-2.35934 1.384967,-3.41416 0.03971,-0.27523 0.0893,-0.6127 0.110299,-0.74994 0.02099,-0.13722 0.02739,-0.25313 0.01412,-0.25763 -0.01314,-0.004 -0.0096,-0.11118 0.008,-0.23714 0.0176,-0.12598 0.02276,-0.33089 0.01144,-0.45536 -0.01126,-0.12448 -0.01832,-0.25509 -0.01537,-0.29019 0.02242,-0.27623 -0.173301,-1.50195 -0.24366,-1.52576 -0.04897,-0.0165 -0.06206,-0.10957 -0.02919,-0.20668 0.03288,-0.0971 0.0068,-0.19452 -0.05798,-0.21643 -0.06479,-0.0219 -0.09147,-0.11742 -0.05936,-0.21229 0.03209,-0.0949 -0.02841,-0.26501 -0.13447,-0.37814 -0.106038,-0.11316 -0.168416,-0.2778 -0.138592,-0.36595 0.02984,-0.0881 -0.08835,-0.39327 -0.262595,-0.67807 -0.17425,-0.28481 -0.374307,-0.62432 -0.444566,-0.75448 -0.07026,-0.13013 -0.18952,-0.25753 -0.265035,-0.28309 -0.07549,-0.0255 -0.119366,-0.0994 -0.09745,-0.16417 0.02193,-0.0648 -0.03964,-0.14464 -0.136746,-0.17748 -0.09715,-0.0329 -0.163047,-0.0998 -0.146507,-0.14871 0.02382,-0.0704 -0.831213,-0.97018 -1.064308,-1.12007 -0.02952,-0.0196 -0.129159,-0.10388 -0.221208,-0.18846 -0.09205,-0.0846 -0.234087,-0.18825 -0.315674,-0.23037 -0.08159,-0.0421 -0.198355,-0.13774 -0.259504,-0.21239 -0.378914,-0.46295 -2.944849,-1.35026 -4.146796,-1.434 -0.176261,-0.0121 -0.377401,-0.0286 -0.446953,-0.0363 -0.0696,-0.008 -0.206732,0.004 -0.30477,0.0278 -0.0981,0.0232 -0.16761,0.011 -0.154602,-0.0279 0.01301,-0.0384 -0.117918,-0.0441 -0.291018,-0.0124 -0.173057,0.0316 -0.342681,0.053 -0.376911,0.0475 -0.285198,-0.0457 -0.660475,0.0127 -0.692725,0.10839 -0.02173,0.0643 -0.08138,0.0662 -0.132597,0.005 -0.05126,-0.0619 -0.112082,-0.0565 -0.135271,0.0124 -0.02321,0.0686 -0.121663,0.0977 -0.218784,0.0649 -0.09713,-0.0329 -0.194513,-0.007 -0.216429,0.058 -0.02193,0.0648 -0.09507,0.099 -0.162543,0.0762 -0.142898,-0.0483 -0.260259,-0.004 -1.467344,0.55315 -0.496115,0.22905 -0.968812,0.49716 -1.050463,0.59582 -0.08163,0.0988 -0.203094,0.1609 -0.269875,0.1383 -0.06679,-0.0226 -0.148318,0.0383 -0.181181,0.1355 -0.03288,0.0971 -0.115832,0.15763 -0.184432,0.13441 -0.06858,-0.0232 -0.111118,0.0169 -0.0946,0.088 0.01654,0.0716 -0.01593,0.13441 -0.07224,0.13956 -0.145312,0.013 -1.198588,1.01613 -1.101695,1.04892 0.04405,0.0149 -0.01277,0.0843 -0.126251,0.15409 -0.113479,0.0698 -0.166859,0.14035 -0.118673,0.15666 0.04821,0.0162 0.0064,0.0796 -0.09295,0.14084 -0.09935,0.0613 -0.287153,0.30756 -0.417363,0.54761 -0.294208,0.5423 -1.145746,3.03042 -1.184698,3.46154 -0.01585,0.17505 -0.03916,0.43286 -0.05186,0.57289 -0.01275,0.14001 -0.0169,0.27145 -0.0093,0.29207 0.0075,0.0207 0.009,0.0949 0.0033,0.16515 -0.0058,0.0703 -0.006,0.15867 -7.99e-4,0.19653 0.0052,0.0378 0.0046,0.11141 -0.0015,0.16351 -0.006,0.0521 0.01351,0.22806 0.04345,0.39108 0.02993,0.16302 0.0097,0.31853 -0.04505,0.34559 -0.05477,0.0271 -0.03463,0.0711 0.04484,0.0981 0.07938,0.0269 0.09365,0.0907 0.03167,0.14193 -0.06198,0.0512 -0.05339,0.11315 0.01899,0.13765 0.07237,0.0245 0.08097,0.0864 0.01908,0.13765 -0.06198,0.0512 -0.0565,0.11208 0.01204,0.13529 0.06858,0.0232 0.09779,0.12168 0.06494,0.2188 -0.03288,0.0971 0.01033,0.3184 0.09602,0.49173 0.08568,0.17331 0.148345,0.33711 0.139252,0.36398 -0.07004,0.20697 0.964635,2.24009 1.176486,2.31178 0.05551,0.0189 0.104751,0.12772 0.109334,0.24213 0.0045,0.11437 0.07287,0.19303 0.151707,0.17479 0.07879,-0.0182 0.12436,0.023 0.101149,0.0915 -0.02321,0.0686 0.03729,0.15156 0.134407,0.18442 0.09713,0.0329 0.15762,0.11584 0.134409,0.18444 -0.02321,0.0686 0.02183,0.10989 0.100171,0.0917 0.07832,-0.018 0.122319,0.0264 0.09783,0.0987 -0.02448,0.0724 0.01949,0.1168 0.09778,0.0988 0.07832,-0.018 0.120298,0.0323 0.09353,0.11135 -0.02686,0.0794 -0.0041,0.12217 0.05067,0.0952 0.05477,-0.0271 0.190592,0.0513 0.301931,0.17405 0.111345,0.12277 0.239288,0.24519 0.284336,0.27201 0.04507,0.0269 0.103919,0.071 0.130817,0.0981 0.02691,0.0272 0.09739,0.0806 0.15669,0.11858 0.05931,0.0381 0.117414,0.0843 0.129183,0.10294 0.02158,0.034 0.22624,0.16702 0.72589,0.47218 0.438535,0.26779 2.699012,1.06562 2.988865,1.05496 z m 36.132458,10.12598 c 0.110416,-0.0255 0.234062,-0.007 0.274943,0.0434 0.04081,0.0494 0.154507,0.0708 0.252559,0.0477 0.09806,-0.0231 0.252233,-0.029 0.342621,-0.013 0.09037,0.0161 0.266226,0.02 0.390712,0.009 0.124448,-0.0117 0.255248,-0.0187 0.290578,-0.0169 0.39945,0.0246 0.66236,-0.0187 0.69475,-0.11443 0.0216,-0.0643 0.0814,-0.0662 0.13259,-0.005 0.0513,0.0619 0.11208,0.0565 0.13528,-0.0124 0.0232,-0.0686 0.12165,-0.0977 0.21878,-0.0649 0.0971,0.0329 0.19452,0.007 0.21643,-0.058 0.0219,-0.0648 0.0928,-0.0998 0.15757,-0.0779 0.15352,0.052 1.99642,-0.8591 2.04835,-1.01262 0.0219,-0.0647 0.0928,-0.0998 0.15758,-0.0779 0.0648,0.022 0.14462,-0.0397 0.17748,-0.13678 0.0329,-0.0971 0.12152,-0.15569 0.19711,-0.1301 0.0756,0.0256 0.11566,0.003 0.0891,-0.051 -0.0265,-0.0536 0.0556,-0.14871 0.18209,-0.2114 0.12665,-0.0626 0.21666,-0.17272 0.20003,-0.24471 -0.0166,-0.0719 0.0347,-0.10887 0.11399,-0.082 0.0794,0.0269 0.12127,0.003 0.0931,-0.0548 -0.0282,-0.0571 0.0212,-0.14831 0.10979,-0.20279 0.0886,-0.0544 0.22801,-0.21939 0.30991,-0.36642 0.0819,-0.14702 0.15966,-0.26371 0.17272,-0.25928 0.0849,0.0287 0.40268,-0.71062 0.75092,-1.74685 0.46636,-1.38763 0.50825,-1.57136 0.4174,-1.82691 -0.0365,-0.10259 -0.0268,-0.17309 0.0214,-0.15678 0.0482,0.0162 0.0486,-0.0722 7e-4,-0.1965 -0.0478,-0.12441 -0.0477,-0.21296 -3e-4,-0.19681 0.0477,0.0162 0.0448,-0.13244 -0.007,-0.33019 -0.0512,-0.19777 -0.0618,-0.34892 -0.0237,-0.33588 0.0384,0.0131 0.015,-0.0878 -0.0524,-0.22392 -0.0673,-0.13617 -0.0968,-0.32329 -0.0655,-0.41578 0.0313,-0.0925 0.004,-0.1861 -0.0608,-0.20802 -0.0648,-0.0219 -0.0908,-0.11932 -0.058,-0.21644 0.0329,-0.0971 0.007,-0.19451 -0.058,-0.21641 -0.0648,-0.0219 -0.0962,-0.10635 -0.0699,-0.18767 0.0593,-0.18128 -0.59934,-1.4821 -0.78098,-1.54357 -0.0721,-0.0244 -0.13468,-0.13414 -0.13909,-0.24387 -0.004,-0.10973 -0.0818,-0.22449 -0.17201,-0.25502 -0.0902,-0.0306 -0.14503,-0.11157 -0.12182,-0.18017 0.0232,-0.0686 -0.0218,-0.10988 -0.10008,-0.0917 -0.0783,0.018 -0.12555,-0.0167 -0.105,-0.0774 0.0318,-0.0941 -0.44372,-0.59197 -0.70242,-0.73544 -0.0457,-0.025 -0.10484,-0.0682 -0.13174,-0.0954 -0.0269,-0.0272 -0.0975,-0.0805 -0.15668,-0.11858 -0.0593,-0.0381 -0.11742,-0.0843 -0.12918,-0.10292 -0.0357,-0.0561 -0.31153,-0.23091 -0.94538,-0.59909 -0.54871,-0.31872 -1.30646,-0.55455 -2.13672,-0.66505 -0.17265,-0.0229 -0.48356,-0.0638 -0.69091,-0.0908 -0.420451,-0.0548 -2.125239,0.14894 -2.233363,0.26682 -0.03812,0.0417 -0.1228,0.0574 -0.188134,0.0353 -0.15496,-0.0525 -2.125764,0.92185 -2.178198,1.0768 -0.02212,0.0654 -0.09174,0.12106 -0.154658,0.12383 -0.09999,0.004 -0.910973,0.82324 -1.0321,1.04212 -0.02452,0.0444 -0.108442,0.11986 -0.186417,0.16789 -0.138915,0.0855 -0.311511,0.34677 -0.741654,1.12266 -0.467639,0.84353 -0.947966,2.70296 -0.798717,3.09189 0.04376,0.11405 0.04476,0.19563 0.0022,0.18124 -0.04262,-0.0144 -0.05151,0.11542 -0.01992,0.28849 0.0316,0.17306 0.05301,0.3427 0.04755,0.37691 -0.04449,0.27778 0.01173,0.66 0.10145,0.69037 0.06034,0.0204 0.08444,0.11208 0.05343,0.20374 -0.031,0.0916 0.01452,0.34964 0.10121,0.57336 0.475144,1.22648 0.656435,1.5967 0.80678,1.64757 0.0916,0.031 0.170187,0.14616 0.174599,0.25588 0.0044,0.10974 0.0818,0.22451 0.172006,0.25503 0.09017,0.0305 0.15032,0.0959 0.133589,0.14538 -0.02506,0.0741 0.868471,1.01949 1.061469,1.12315 0.03133,0.0169 0.125126,0.091 0.208347,0.16508 0.465444,0.41368 2.877307,1.39604 3.228251,1.31486 z m -1.717892,-2.87022 c -0.37307,-0.29538 -1.211259,-1.06925 -1.249694,-1.15381 -0.02069,-0.0455 -0.152068,-0.22493 -0.291965,-0.39873 -0.139901,-0.17377 -0.318813,-0.58723 -0.397574,-0.91875 -0.07878,-0.33153 -0.169941,-0.64134 -0.202597,-0.68846 -0.05504,-0.0795 -0.09497,-0.53872 -0.05872,-0.67592 0.0091,-0.033 -0.0031,-0.17381 -0.02617,-0.31259 -0.06818,-0.40919 -0.0044,-0.76202 0.283261,-1.56855 0.322681,-0.90464 0.419225,-1.09075 0.810635,-1.56264 0.163545,-0.19724 0.299305,-0.40224 0.301643,-0.45557 0.0023,-0.0533 0.05364,-0.0802 0.114079,-0.0598 0.06034,0.0204 0.1816,-0.0606 0.269371,-0.18006 0.20691,-0.28164 1.763812,-1.05131 2.113238,-1.04468 0.148202,0.003 0.286189,-0.0443 0.306625,-0.10465 0.02043,-0.0603 0.07309,-0.0855 0.117194,-0.0556 0.04412,0.0299 0.392638,0.0537 0.774699,0.053 0.75725,-8.7e-4 2.6634,0.59342 2.84344,0.88719 0.0117,0.019 0.0574,0.0581 0.10182,0.0868 0.15235,0.0988 0.86846,0.82649 0.97948,0.99522 0.3349,0.50897 0.74719,1.36639 0.70996,1.47643 -0.0237,0.0698 0.01,0.14487 0.0748,0.16678 0.0648,0.0219 0.0908,0.11932 0.058,0.21644 -0.0329,0.0971 -0.004,0.19557 0.0649,0.21878 0.0686,0.0232 0.0741,0.0841 0.0124,0.13528 -0.062,0.0512 -0.0475,0.11517 0.0317,0.14193 0.0794,0.0269 0.0995,0.0709 0.0447,0.098 -0.0547,0.0271 -0.0757,0.18234 -0.0466,0.34508 0.0819,0.45722 0.0565,0.60642 -0.29761,1.75177 -0.18175,0.58799 -0.40509,1.11761 -0.49623,1.177 -0.0911,0.0593 -0.12964,0.12012 -0.0854,0.13506 0.0441,0.0149 0.0158,0.0791 -0.063,0.14267 -0.0789,0.0634 -0.15902,0.13974 -0.17829,0.16929 -0.16751,0.25697 -0.63194,0.70464 -0.7052,0.67984 -0.0505,-0.0171 -0.10897,0.0195 -0.12982,0.081 -0.0494,0.14614 -1.59458,0.90998 -1.74074,0.86053 -0.0616,-0.0209 -0.1261,0.003 -0.14321,0.0539 -0.0255,0.0754 -0.57827,0.15839 -1.00217,0.15041 -0.05371,-3.8e-4 -0.114905,0.005 -0.135853,0.0134 -0.0209,0.008 -0.232324,-0.0211 -0.469722,-0.0659 -0.237397,-0.0449 -0.466456,-0.0643 -0.508972,-0.0432 -0.105067,0.0518 -1.524387,-0.54327 -1.78207,-0.74731 z"
         id="path865-8"
         sodipodi:nodetypes="csscssssssssssssscssscsscsssccsssscsssssssssssscsccssssccscsssssssssscsssssscssssssssscsssssssssscssscsssccscccsccccscssssssssscsscccsccscsssssssscscsscscsscsscssssccsssscsscscsscccccssssccccssscsccccsssssssscccsccsssssssscc" />
    </g>
  </g>
</svg>
